<svg width="638" height="509" viewBox="0 0 638 509" fill="none" xmlns="http://www.w3.org/2000/svg">
<g filter="url(#filter0_d)">
<rect width="630" height="501" transform="translate(4)" fill="white"/>
<path d="M199.5 336.516C174.5 358.869 147 364.866 62 370.318V463H575V191.495C574 195.857 554.4 201.963 484 191.495C396 178.41 414.5 220.39 329 234.02C243.5 247.65 224.5 314.163 199.5 336.516Z" fill="#007BFF" fill-opacity="0.5" stroke="black"/>
<path d="M91.1641 482.542C91.1641 484.446 90.8389 485.861 90.1885 486.787C89.5381 487.713 88.5215 488.176 87.1387 488.176C85.7734 488.176 84.7627 487.725 84.1064 486.822C83.4502 485.914 83.1104 484.561 83.0869 482.762V480.591C83.0869 478.71 83.4121 477.312 84.0625 476.398C84.7129 475.484 85.7324 475.027 87.1211 475.027C88.498 475.027 89.5117 475.47 90.1621 476.354C90.8125 477.233 91.1465 478.593 91.1641 480.433V482.542ZM89.5381 480.318C89.5381 478.941 89.3447 477.939 88.958 477.312C88.5713 476.68 87.959 476.363 87.1211 476.363C86.2891 476.363 85.6826 476.677 85.3018 477.304C84.9209 477.931 84.7246 478.895 84.7129 480.195V482.797C84.7129 484.18 84.9121 485.202 85.3105 485.864C85.7148 486.521 86.3242 486.849 87.1387 486.849C87.9414 486.849 88.5361 486.538 88.9229 485.917C89.3154 485.296 89.5205 484.317 89.5381 482.981V480.318ZM98.5908 488H96.9561V477.163L93.6777 478.367V476.891L98.3359 475.142H98.5908V488ZM103.847 489.099H102.449L107.793 475.203H109.182L103.847 489.099ZM116.116 488H114.481V477.163L111.203 478.367V476.891L115.861 475.142H116.116V488ZM126.224 488H124.589V477.163L121.311 478.367V476.891L125.969 475.142H126.224V488Z" fill="black"/>
<path d="M207.164 482.542C207.164 484.446 206.839 485.861 206.188 486.787C205.538 487.713 204.521 488.176 203.139 488.176C201.773 488.176 200.763 487.725 200.106 486.822C199.45 485.914 199.11 484.561 199.087 482.762V480.591C199.087 478.71 199.412 477.312 200.062 476.398C200.713 475.484 201.732 475.027 203.121 475.027C204.498 475.027 205.512 475.47 206.162 476.354C206.812 477.233 207.146 478.593 207.164 480.433V482.542ZM205.538 480.318C205.538 478.941 205.345 477.939 204.958 477.312C204.571 476.68 203.959 476.363 203.121 476.363C202.289 476.363 201.683 476.677 201.302 477.304C200.921 477.931 200.725 478.895 200.713 480.195V482.797C200.713 484.18 200.912 485.202 201.311 485.864C201.715 486.521 202.324 486.849 203.139 486.849C203.941 486.849 204.536 486.538 204.923 485.917C205.315 485.296 205.521 484.317 205.538 482.981V480.318ZM217.008 478.543C217.008 479.182 216.838 479.75 216.498 480.248C216.164 480.746 215.71 481.136 215.136 481.417C215.804 481.704 216.331 482.123 216.718 482.674C217.11 483.225 217.307 483.849 217.307 484.546C217.307 485.653 216.932 486.535 216.182 487.191C215.438 487.848 214.456 488.176 213.237 488.176C212.007 488.176 211.02 487.848 210.275 487.191C209.537 486.529 209.168 485.647 209.168 484.546C209.168 483.854 209.355 483.23 209.73 482.674C210.111 482.117 210.636 481.695 211.304 481.408C210.735 481.127 210.287 480.737 209.959 480.239C209.631 479.741 209.467 479.176 209.467 478.543C209.467 477.465 209.812 476.609 210.504 475.977C211.195 475.344 212.106 475.027 213.237 475.027C214.362 475.027 215.271 475.344 215.962 475.977C216.659 476.609 217.008 477.465 217.008 478.543ZM215.681 484.511C215.681 483.796 215.452 483.213 214.995 482.762C214.544 482.311 213.952 482.085 213.22 482.085C212.487 482.085 211.898 482.308 211.453 482.753C211.014 483.198 210.794 483.784 210.794 484.511C210.794 485.237 211.008 485.809 211.436 486.225C211.869 486.641 212.47 486.849 213.237 486.849C213.999 486.849 214.597 486.641 215.03 486.225C215.464 485.803 215.681 485.231 215.681 484.511ZM213.237 476.363C212.599 476.363 212.08 476.562 211.682 476.961C211.289 477.354 211.093 477.89 211.093 478.569C211.093 479.22 211.286 479.747 211.673 480.151C212.065 480.55 212.587 480.749 213.237 480.749C213.888 480.749 214.406 480.55 214.793 480.151C215.186 479.747 215.382 479.22 215.382 478.569C215.382 477.919 215.18 477.389 214.775 476.979C214.371 476.568 213.858 476.363 213.237 476.363ZM219.847 489.099H218.449L223.793 475.203H225.182L219.847 489.099ZM232.116 488H230.481V477.163L227.203 478.367V476.891L231.861 475.142H232.116V488ZM242.224 488H240.589V477.163L237.311 478.367V476.891L241.969 475.142H242.224V488Z" fill="black"/>
<path d="M320.483 488H318.849V477.163L315.57 478.367V476.891L320.229 475.142H320.483V488ZM325.994 481.584L326.645 475.203H333.201V476.706H328.024L327.638 480.195C328.265 479.826 328.977 479.642 329.773 479.642C330.939 479.642 331.865 480.028 332.551 480.802C333.236 481.569 333.579 482.609 333.579 483.922C333.579 485.24 333.222 486.28 332.507 487.042C331.798 487.798 330.805 488.176 329.527 488.176C328.396 488.176 327.474 487.862 326.759 487.235C326.044 486.608 325.637 485.741 325.537 484.634H327.075C327.175 485.366 327.436 485.92 327.857 486.295C328.279 486.664 328.836 486.849 329.527 486.849C330.283 486.849 330.875 486.591 331.303 486.075C331.736 485.56 331.953 484.848 331.953 483.939C331.953 483.084 331.719 482.398 331.25 481.883C330.787 481.361 330.169 481.101 329.396 481.101C328.687 481.101 328.13 481.256 327.726 481.566L327.295 481.918L325.994 481.584ZM335.847 489.099H334.449L339.793 475.203H341.182L335.847 489.099ZM348.116 488H346.481V477.163L343.203 478.367V476.891L347.861 475.142H348.116V488ZM358.224 488H356.589V477.163L353.311 478.367V476.891L357.969 475.142H358.224V488Z" fill="black"/>
<path d="M439.524 488H431.14V486.831L435.569 481.909C436.226 481.165 436.677 480.562 436.923 480.099C437.175 479.63 437.301 479.146 437.301 478.648C437.301 477.98 437.099 477.433 436.694 477.005C436.29 476.577 435.751 476.363 435.077 476.363C434.269 476.363 433.639 476.595 433.188 477.058C432.742 477.515 432.52 478.153 432.52 478.974H430.894C430.894 477.796 431.271 476.844 432.027 476.117C432.789 475.391 433.806 475.027 435.077 475.027C436.267 475.027 437.207 475.341 437.898 475.968C438.59 476.589 438.936 477.418 438.936 478.455C438.936 479.715 438.133 481.215 436.527 482.955L433.1 486.673H439.524V488ZM449.632 488H441.247V486.831L445.677 481.909C446.333 481.165 446.784 480.562 447.03 480.099C447.282 479.63 447.408 479.146 447.408 478.648C447.408 477.98 447.206 477.433 446.802 477.005C446.397 476.577 445.858 476.363 445.185 476.363C444.376 476.363 443.746 476.595 443.295 477.058C442.85 477.515 442.627 478.153 442.627 478.974H441.001C441.001 477.796 441.379 476.844 442.135 476.117C442.896 475.391 443.913 475.027 445.185 475.027C446.374 475.027 447.314 475.341 448.006 475.968C448.697 476.589 449.043 477.418 449.043 478.455C449.043 479.715 448.24 481.215 446.635 482.955L443.207 486.673H449.632V488ZM451.847 489.099H450.449L455.793 475.203H457.182L451.847 489.099ZM464.116 488H462.481V477.163L459.203 478.367V476.891L463.861 475.142H464.116V488ZM474.224 488H472.589V477.163L469.311 478.367V476.891L473.969 475.142H474.224V488Z" fill="black"/>
<path d="M556.604 476.592H552.49V488H550.812V476.592H546.707V475.203H556.604V476.592ZM560.014 488H558.388V478.49H560.014V488ZM558.256 475.968C558.256 475.704 558.335 475.481 558.493 475.3C558.657 475.118 558.897 475.027 559.214 475.027C559.53 475.027 559.771 475.118 559.935 475.3C560.099 475.481 560.181 475.704 560.181 475.968C560.181 476.231 560.099 476.451 559.935 476.627C559.771 476.803 559.53 476.891 559.214 476.891C558.897 476.891 558.657 476.803 558.493 476.627C558.335 476.451 558.256 476.231 558.256 475.968ZM564.153 478.49L564.197 479.545C564.895 478.725 565.835 478.314 567.019 478.314C568.349 478.314 569.254 478.824 569.734 479.844C570.051 479.387 570.461 479.018 570.965 478.736C571.475 478.455 572.075 478.314 572.767 478.314C574.853 478.314 575.913 479.419 575.948 481.628V488H574.322V481.725C574.322 481.045 574.167 480.538 573.856 480.204C573.546 479.864 573.024 479.694 572.292 479.694C571.688 479.694 571.188 479.876 570.789 480.239C570.391 480.597 570.159 481.08 570.095 481.689V488H568.46V481.769C568.46 480.386 567.783 479.694 566.43 479.694C565.363 479.694 564.634 480.148 564.241 481.057V488H562.615V478.49H564.153ZM582.355 488.176C581.066 488.176 580.018 487.754 579.209 486.91C578.4 486.061 577.996 484.927 577.996 483.509V483.21C577.996 482.267 578.175 481.426 578.532 480.688C578.896 479.943 579.399 479.363 580.044 478.947C580.694 478.525 581.397 478.314 582.153 478.314C583.39 478.314 584.351 478.722 585.036 479.536C585.722 480.351 586.064 481.517 586.064 483.034V483.711H579.622C579.646 484.648 579.918 485.407 580.439 485.987C580.967 486.562 581.635 486.849 582.443 486.849C583.018 486.849 583.504 486.731 583.902 486.497C584.301 486.263 584.649 485.952 584.948 485.565L585.941 486.339C585.145 487.563 583.949 488.176 582.355 488.176ZM582.153 479.65C581.497 479.65 580.946 479.891 580.501 480.371C580.056 480.846 579.78 481.514 579.675 482.375H584.438V482.252C584.392 481.426 584.169 480.787 583.771 480.336C583.372 479.879 582.833 479.65 582.153 479.65Z" fill="black"/>
<path d="M586.854 463.354C587.049 463.158 587.049 462.842 586.854 462.646L583.672 459.464C583.476 459.269 583.16 459.269 582.964 459.464C582.769 459.66 582.769 459.976 582.964 460.172L585.793 463L582.964 465.828C582.769 466.024 582.769 466.34 582.964 466.536C583.16 466.731 583.476 466.731 583.672 466.536L586.854 463.354ZM61.5 463.5H586.5V462.5H61.5V463.5Z" fill="black"/>
<path d="M62.3536 70.6465C62.1583 70.4512 61.8417 70.4512 61.6464 70.6465L58.4645 73.8284C58.2692 74.0237 58.2692 74.3403 58.4645 74.5355C58.6597 74.7308 58.9763 74.7308 59.1716 74.5355L62 71.7071L64.8284 74.5355C65.0237 74.7308 65.3403 74.7308 65.5355 74.5355C65.7308 74.3403 65.7308 74.0237 65.5355 73.8284L62.3536 70.6465ZM62.5 463L62.5 71H61.5L61.5 463H62.5Z" fill="black"/>
<path d="M17.7207 83.9658L17.9668 85.6533L18.3271 84.1328L20.8584 75.2031H22.2822L24.752 84.1328L25.1035 85.6797L25.376 83.957L27.3623 75.2031H29.0586L25.9561 88H24.418L21.7812 78.6748L21.5791 77.6992L21.377 78.6748L18.6436 88H17.1055L14.0117 75.2031H15.6992L17.7207 83.9658ZM32.627 82.9902V88H30.9395V75.2031H35.6592C37.0596 75.2031 38.1553 75.5605 38.9463 76.2754C39.7432 76.9902 40.1416 77.9365 40.1416 79.1143C40.1416 80.3564 39.752 81.3145 38.9727 81.9883C38.1992 82.6562 37.0889 82.9902 35.6416 82.9902H32.627ZM32.627 81.6104H35.6592C36.5615 81.6104 37.2529 81.3994 37.7334 80.9775C38.2139 80.5498 38.4541 79.9346 38.4541 79.1318C38.4541 78.3701 38.2139 77.7607 37.7334 77.3037C37.2529 76.8467 36.5938 76.6094 35.7559 76.5918H32.627V81.6104ZM44.4746 75.2031L48.6582 85.6445L52.8418 75.2031H55.0303V88H53.3428V83.0166L53.501 77.6377L49.2998 88H48.0078L43.8154 77.6641L43.9824 83.0166V88H42.2949V75.2031H44.4746Z" fill="black"/>
<path d="M30.7998 417H29.165V406.163L25.8867 407.367V405.891L30.5449 404.142H30.7998V417ZM43.5879 411.542C43.5879 413.446 43.2627 414.861 42.6123 415.787C41.9619 416.713 40.9453 417.176 39.5625 417.176C38.1973 417.176 37.1865 416.725 36.5303 415.822C35.874 414.914 35.5342 413.561 35.5107 411.762V409.591C35.5107 407.71 35.8359 406.312 36.4863 405.398C37.1367 404.484 38.1562 404.027 39.5449 404.027C40.9219 404.027 41.9355 404.47 42.5859 405.354C43.2363 406.233 43.5703 407.593 43.5879 409.433V411.542ZM41.9619 409.318C41.9619 407.941 41.7686 406.939 41.3818 406.312C40.9951 405.68 40.3828 405.363 39.5449 405.363C38.7129 405.363 38.1064 405.677 37.7256 406.304C37.3447 406.931 37.1484 407.895 37.1367 409.195V411.797C37.1367 413.18 37.3359 414.202 37.7344 414.864C38.1387 415.521 38.748 415.849 39.5625 415.849C40.3652 415.849 40.96 415.538 41.3467 414.917C41.7393 414.296 41.9443 413.317 41.9619 411.981V409.318Z" fill="black"/>
<path d="M33.8408 348H25.4561V346.831L29.8857 341.909C30.542 341.165 30.9932 340.562 31.2393 340.099C31.4912 339.63 31.6172 339.146 31.6172 338.648C31.6172 337.98 31.415 337.433 31.0107 337.005C30.6064 336.577 30.0674 336.363 29.3936 336.363C28.585 336.363 27.9551 336.595 27.5039 337.058C27.0586 337.515 26.8359 338.153 26.8359 338.974H25.21C25.21 337.796 25.5879 336.844 26.3438 336.117C27.1055 335.391 28.1221 335.027 29.3936 335.027C30.583 335.027 31.5234 335.341 32.2148 335.968C32.9062 336.589 33.252 337.418 33.252 338.455C33.252 339.715 32.4492 341.215 30.8438 342.955L27.416 346.673H33.8408V348ZM43.5879 342.542C43.5879 344.446 43.2627 345.861 42.6123 346.787C41.9619 347.713 40.9453 348.176 39.5625 348.176C38.1973 348.176 37.1865 347.725 36.5303 346.822C35.874 345.914 35.5342 344.561 35.5107 342.762V340.591C35.5107 338.71 35.8359 337.312 36.4863 336.398C37.1367 335.484 38.1562 335.027 39.5449 335.027C40.9219 335.027 41.9355 335.47 42.5859 336.354C43.2363 337.233 43.5703 338.593 43.5879 340.433V342.542ZM41.9619 340.318C41.9619 338.941 41.7686 337.939 41.3818 337.312C40.9951 336.68 40.3828 336.363 39.5449 336.363C38.7129 336.363 38.1064 336.677 37.7256 337.304C37.3447 337.931 37.1484 338.895 37.1367 340.195V342.797C37.1367 344.18 37.3359 345.202 37.7344 345.864C38.1387 346.521 38.748 346.849 39.5625 346.849C40.3652 346.849 40.96 346.538 41.3467 345.917C41.7393 345.296 41.9443 344.317 41.9619 342.981V340.318Z" fill="black"/>
<path d="M27.8203 271.811H29.042C29.8096 271.799 30.4131 271.597 30.8525 271.204C31.292 270.812 31.5117 270.281 31.5117 269.613C31.5117 268.113 30.7646 267.363 29.2705 267.363C28.5674 267.363 28.0049 267.565 27.583 267.97C27.167 268.368 26.959 268.898 26.959 269.561H25.333C25.333 268.547 25.7021 267.706 26.4404 267.038C27.1846 266.364 28.1279 266.027 29.2705 266.027C30.4775 266.027 31.4238 266.347 32.1094 266.985C32.7949 267.624 33.1377 268.512 33.1377 269.648C33.1377 270.205 32.9561 270.744 32.5928 271.266C32.2354 271.787 31.7461 272.177 31.125 272.435C31.8281 272.657 32.3701 273.026 32.751 273.542C33.1377 274.058 33.3311 274.688 33.3311 275.432C33.3311 276.58 32.9561 277.491 32.2061 278.165C31.4561 278.839 30.4805 279.176 29.2793 279.176C28.0781 279.176 27.0996 278.851 26.3438 278.2C25.5938 277.55 25.2188 276.691 25.2188 275.625H26.8535C26.8535 276.299 27.0732 276.838 27.5127 277.242C27.9521 277.646 28.541 277.849 29.2793 277.849C30.0645 277.849 30.665 277.644 31.0811 277.233C31.4971 276.823 31.7051 276.234 31.7051 275.467C31.7051 274.723 31.4766 274.151 31.0195 273.753C30.5625 273.354 29.9033 273.149 29.042 273.138H27.8203V271.811ZM43.5879 273.542C43.5879 275.446 43.2627 276.861 42.6123 277.787C41.9619 278.713 40.9453 279.176 39.5625 279.176C38.1973 279.176 37.1865 278.725 36.5303 277.822C35.874 276.914 35.5342 275.561 35.5107 273.762V271.591C35.5107 269.71 35.8359 268.312 36.4863 267.398C37.1367 266.484 38.1562 266.027 39.5449 266.027C40.9219 266.027 41.9355 266.47 42.5859 267.354C43.2363 268.233 43.5703 269.593 43.5879 271.433V273.542ZM41.9619 271.318C41.9619 269.941 41.7686 268.939 41.3818 268.312C40.9951 267.68 40.3828 267.363 39.5449 267.363C38.7129 267.363 38.1064 267.677 37.7256 268.304C37.3447 268.931 37.1484 269.895 37.1367 271.195V273.797C37.1367 275.18 37.3359 276.202 37.7344 276.864C38.1387 277.521 38.748 277.849 39.5625 277.849C40.3652 277.849 40.96 277.538 41.3467 276.917C41.7393 276.296 41.9443 275.317 41.9619 273.981V271.318Z" fill="black"/>
<path d="M32.3203 205.702H34.0957V207.029H32.3203V210H30.6855V207.029H24.8584V206.071L30.5889 197.203H32.3203V205.702ZM26.7041 205.702H30.6855V199.427L30.4922 199.778L26.7041 205.702ZM43.5879 204.542C43.5879 206.446 43.2627 207.861 42.6123 208.787C41.9619 209.713 40.9453 210.176 39.5625 210.176C38.1973 210.176 37.1865 209.725 36.5303 208.822C35.874 207.914 35.5342 206.561 35.5107 204.762V202.591C35.5107 200.71 35.8359 199.312 36.4863 198.398C37.1367 197.484 38.1562 197.027 39.5449 197.027C40.9219 197.027 41.9355 197.47 42.5859 198.354C43.2363 199.233 43.5703 200.593 43.5879 202.433V204.542ZM41.9619 202.318C41.9619 200.941 41.7686 199.939 41.3818 199.312C40.9951 198.68 40.3828 198.363 39.5449 198.363C38.7129 198.363 38.1064 198.677 37.7256 199.304C37.3447 199.931 37.1484 200.895 37.1367 202.195V204.797C37.1367 206.18 37.3359 207.202 37.7344 207.864C38.1387 208.521 38.748 208.849 39.5625 208.849C40.3652 208.849 40.96 208.538 41.3467 207.917C41.7393 207.296 41.9443 206.317 41.9619 204.981V202.318Z" fill="black"/>
<path d="M26.2031 134.584L26.8535 128.203H33.4102V129.706H28.2334L27.8467 133.195C28.4736 132.826 29.1855 132.642 29.9824 132.642C31.1484 132.642 32.0742 133.028 32.7598 133.802C33.4453 134.569 33.7881 135.609 33.7881 136.922C33.7881 138.24 33.4307 139.28 32.7158 140.042C32.0068 140.798 31.0137 141.176 29.7363 141.176C28.6055 141.176 27.6826 140.862 26.9678 140.235C26.2529 139.608 25.8457 138.741 25.7461 137.634H27.2842C27.3838 138.366 27.6445 138.92 28.0664 139.295C28.4883 139.664 29.0449 139.849 29.7363 139.849C30.4922 139.849 31.084 139.591 31.5117 139.075C31.9453 138.56 32.1621 137.848 32.1621 136.939C32.1621 136.084 31.9277 135.398 31.459 134.883C30.9961 134.361 30.3779 134.101 29.6045 134.101C28.8955 134.101 28.3389 134.256 27.9346 134.566L27.5039 134.918L26.2031 134.584ZM43.5879 135.542C43.5879 137.446 43.2627 138.861 42.6123 139.787C41.9619 140.713 40.9453 141.176 39.5625 141.176C38.1973 141.176 37.1865 140.725 36.5303 139.822C35.874 138.914 35.5342 137.561 35.5107 135.762V133.591C35.5107 131.71 35.8359 130.312 36.4863 129.398C37.1367 128.484 38.1562 128.027 39.5449 128.027C40.9219 128.027 41.9355 128.47 42.5859 129.354C43.2363 130.233 43.5703 131.593 43.5879 133.433V135.542ZM41.9619 133.318C41.9619 131.941 41.7686 130.939 41.3818 130.312C40.9951 129.68 40.3828 129.363 39.5449 129.363C38.7129 129.363 38.1064 129.677 37.7256 130.304C37.3447 130.931 37.1484 131.895 37.1367 133.195V135.797C37.1367 137.18 37.3359 138.202 37.7344 138.864C38.1387 139.521 38.748 139.849 39.5625 139.849C40.3652 139.849 40.96 139.538 41.3467 138.917C41.7393 138.296 41.9443 137.317 41.9619 135.981V133.318Z" fill="black"/>
</g>
<defs>
<filter id="filter0_d" x="0" y="0" width="638" height="509" filterUnits="userSpaceOnUse" color-interpolation-filters="sRGB">
<feFlood flood-opacity="0" result="BackgroundImageFix"/>
<feColorMatrix in="SourceAlpha" type="matrix" values="0 0 0 0 0 0 0 0 0 0 0 0 0 0 0 0 0 0 127 0"/>
<feOffset dy="4"/>
<feGaussianBlur stdDeviation="2"/>
<feColorMatrix type="matrix" values="0 0 0 0 0 0 0 0 0 0 0 0 0 0 0 0 0 0 0.25 0"/>
<feBlend mode="normal" in2="BackgroundImageFix" result="effect1_dropShadow"/>
<feBlend mode="normal" in="SourceGraphic" in2="effect1_dropShadow" result="shape"/>
</filter>
</defs>
</svg>
