<svg width="530" height="420" viewBox="0 0 530 420" fill="none" xmlns="http://www.w3.org/2000/svg">
<g filter="url(#filter0_d)">
<rect width="522" height="412" transform="translate(4)" fill="white"/>
<path d="M85.1719 383.086C85.1719 384.99 84.8467 386.405 84.1963 387.331C83.5459 388.257 82.5293 388.72 81.1465 388.72C79.7812 388.72 78.7705 388.269 78.1143 387.366C77.458 386.458 77.1182 385.104 77.0947 383.306V381.135C77.0947 379.254 77.4199 377.856 78.0703 376.942C78.7207 376.028 79.7402 375.571 81.1289 375.571C82.5059 375.571 83.5195 376.014 84.1699 376.898C84.8203 377.777 85.1543 379.137 85.1719 380.977V383.086ZM83.5459 380.862C83.5459 379.485 83.3525 378.483 82.9658 377.856C82.5791 377.224 81.9668 376.907 81.1289 376.907C80.2969 376.907 79.6904 377.221 79.3096 377.848C78.9287 378.475 78.7324 379.438 78.7207 380.739V383.341C78.7207 384.724 78.9199 385.746 79.3184 386.408C79.7227 387.064 80.332 387.393 81.1465 387.393C81.9492 387.393 82.5439 387.082 82.9307 386.461C83.3232 385.84 83.5283 384.861 83.5459 383.525V380.862ZM92.5986 388.544H90.9639V377.707L87.6855 378.911V377.435L92.3438 375.686H92.5986V388.544ZM97.8545 389.643H96.457L101.801 375.747H103.189L97.8545 389.643ZM110.124 388.544H108.489V377.707L105.211 378.911V377.435L109.869 375.686H110.124V388.544ZM120.231 388.544H118.597V377.707L115.318 378.911V377.435L119.977 375.686H120.231V388.544Z" fill="#224580"/>
<path d="M185.108 383.086C185.108 384.99 184.783 386.405 184.133 387.331C183.482 388.257 182.466 388.72 181.083 388.72C179.718 388.72 178.707 388.269 178.051 387.366C177.395 386.458 177.055 385.104 177.031 383.306V381.135C177.031 379.254 177.356 377.856 178.007 376.942C178.657 376.028 179.677 375.571 181.065 375.571C182.442 375.571 183.456 376.014 184.106 376.898C184.757 377.777 185.091 379.137 185.108 380.977V383.086ZM183.482 380.862C183.482 379.485 183.289 378.483 182.902 377.856C182.516 377.224 181.903 376.907 181.065 376.907C180.233 376.907 179.627 377.221 179.246 377.848C178.865 378.475 178.669 379.438 178.657 380.739V383.341C178.657 384.724 178.856 385.746 179.255 386.408C179.659 387.064 180.269 387.393 181.083 387.393C181.886 387.393 182.48 387.082 182.867 386.461C183.26 385.84 183.465 384.861 183.482 383.525V380.862ZM194.952 379.087C194.952 379.726 194.782 380.294 194.442 380.792C194.108 381.29 193.654 381.68 193.08 381.961C193.748 382.248 194.275 382.667 194.662 383.218C195.055 383.769 195.251 384.393 195.251 385.09C195.251 386.197 194.876 387.079 194.126 387.735C193.382 388.392 192.4 388.72 191.182 388.72C189.951 388.72 188.964 388.392 188.22 387.735C187.481 387.073 187.112 386.191 187.112 385.09C187.112 384.398 187.3 383.774 187.675 383.218C188.056 382.661 188.58 382.239 189.248 381.952C188.68 381.671 188.231 381.281 187.903 380.783C187.575 380.285 187.411 379.72 187.411 379.087C187.411 378.009 187.757 377.153 188.448 376.521C189.14 375.888 190.051 375.571 191.182 375.571C192.307 375.571 193.215 375.888 193.906 376.521C194.604 377.153 194.952 378.009 194.952 379.087ZM193.625 385.055C193.625 384.34 193.396 383.757 192.939 383.306C192.488 382.854 191.896 382.629 191.164 382.629C190.432 382.629 189.843 382.852 189.397 383.297C188.958 383.742 188.738 384.328 188.738 385.055C188.738 385.781 188.952 386.353 189.38 386.769C189.813 387.185 190.414 387.393 191.182 387.393C191.943 387.393 192.541 387.185 192.975 386.769C193.408 386.347 193.625 385.775 193.625 385.055ZM191.182 376.907C190.543 376.907 190.024 377.106 189.626 377.505C189.233 377.897 189.037 378.434 189.037 379.113C189.037 379.764 189.23 380.291 189.617 380.695C190.01 381.094 190.531 381.293 191.182 381.293C191.832 381.293 192.351 381.094 192.737 380.695C193.13 380.291 193.326 379.764 193.326 379.113C193.326 378.463 193.124 377.933 192.72 377.522C192.315 377.112 191.803 376.907 191.182 376.907ZM197.791 389.643H196.394L201.737 375.747H203.126L197.791 389.643ZM210.061 388.544H208.426V377.707L205.147 378.911V377.435L209.806 375.686H210.061V388.544ZM220.168 388.544H218.533V377.707L215.255 378.911V377.435L219.913 375.686H220.168V388.544Z" fill="#224580"/>
<path d="M282.363 388.544H280.729V377.707L277.45 378.911V377.435L282.108 375.686H282.363V388.544ZM287.874 382.128L288.524 375.747H295.081V377.25H289.904L289.518 380.739C290.145 380.37 290.856 380.186 291.653 380.186C292.819 380.186 293.745 380.572 294.431 381.346C295.116 382.113 295.459 383.153 295.459 384.466C295.459 385.784 295.102 386.824 294.387 387.586C293.678 388.342 292.685 388.72 291.407 388.72C290.276 388.72 289.354 388.406 288.639 387.779C287.924 387.152 287.517 386.285 287.417 385.178H288.955C289.055 385.91 289.315 386.464 289.737 386.839C290.159 387.208 290.716 387.393 291.407 387.393C292.163 387.393 292.755 387.135 293.183 386.619C293.616 386.104 293.833 385.392 293.833 384.483C293.833 383.628 293.599 382.942 293.13 382.427C292.667 381.905 292.049 381.645 291.275 381.645C290.566 381.645 290.01 381.8 289.605 382.11L289.175 382.462L287.874 382.128ZM297.727 389.643H296.329L301.673 375.747H303.062L297.727 389.643ZM309.996 388.544H308.361V377.707L305.083 378.911V377.435L309.741 375.686H309.996V388.544ZM320.104 388.544H318.469V377.707L315.19 378.911V377.435L319.849 375.686H320.104V388.544Z" fill="#224580"/>
<path d="M385.341 388.544H376.956V387.375L381.386 382.453C382.042 381.709 382.493 381.105 382.739 380.643C382.991 380.174 383.117 379.69 383.117 379.192C383.117 378.524 382.915 377.977 382.511 377.549C382.106 377.121 381.567 376.907 380.894 376.907C380.085 376.907 379.455 377.139 379.004 377.602C378.559 378.059 378.336 378.697 378.336 379.518H376.71C376.71 378.34 377.088 377.388 377.844 376.661C378.605 375.935 379.622 375.571 380.894 375.571C382.083 375.571 383.023 375.885 383.715 376.512C384.406 377.133 384.752 377.962 384.752 378.999C384.752 380.259 383.949 381.759 382.344 383.499L378.916 387.217H385.341V388.544ZM395.448 388.544H387.063V387.375L391.493 382.453C392.149 381.709 392.601 381.105 392.847 380.643C393.099 380.174 393.225 379.69 393.225 379.192C393.225 378.524 393.022 377.977 392.618 377.549C392.214 377.121 391.675 376.907 391.001 376.907C390.192 376.907 389.562 377.139 389.111 377.602C388.666 378.059 388.443 378.697 388.443 379.518H386.817C386.817 378.34 387.195 377.388 387.951 376.661C388.713 375.935 389.729 375.571 391.001 375.571C392.19 375.571 393.131 375.885 393.822 376.512C394.514 377.133 394.859 377.962 394.859 378.999C394.859 380.259 394.057 381.759 392.451 383.499L389.023 387.217H395.448V388.544ZM397.663 389.643H396.266L401.609 375.747H402.998L397.663 389.643ZM409.933 388.544H408.298V377.707L405.02 378.911V377.435L409.678 375.686H409.933V388.544ZM420.04 388.544H418.405V377.707L415.127 378.911V377.435L419.785 375.686H420.04V388.544Z" fill="#224580"/>
<path d="M484.826 388.544H483.13L476.688 378.683V388.544H474.991V375.747H476.688L483.147 385.652V375.747H484.826V388.544ZM487.182 383.71C487.182 382.228 487.524 381.05 488.21 380.177C488.896 379.298 489.804 378.858 490.935 378.858C492.095 378.858 493 379.269 493.65 380.089L493.729 379.034H495.215V388.315C495.215 389.546 494.849 390.516 494.116 391.225C493.39 391.934 492.411 392.288 491.181 392.288C490.495 392.288 489.824 392.142 489.168 391.849C488.512 391.556 488.011 391.154 487.665 390.645L488.509 389.669C489.206 390.53 490.059 390.961 491.066 390.961C491.857 390.961 492.473 390.738 492.912 390.293C493.357 389.848 493.58 389.221 493.58 388.412V387.595C492.93 388.345 492.042 388.72 490.917 388.72C489.804 388.72 488.901 388.271 488.21 387.375C487.524 386.479 487.182 385.257 487.182 383.71ZM488.816 383.895C488.816 384.967 489.036 385.811 489.476 386.426C489.915 387.035 490.53 387.34 491.321 387.34C492.347 387.34 493.1 386.874 493.58 385.942V381.601C493.082 380.692 492.335 380.238 491.339 380.238C490.548 380.238 489.93 380.546 489.484 381.161C489.039 381.776 488.816 382.688 488.816 383.895ZM503.547 388.544C503.453 388.356 503.377 388.022 503.318 387.542C502.562 388.327 501.66 388.72 500.611 388.72C499.674 388.72 498.903 388.456 498.3 387.929C497.702 387.396 497.403 386.722 497.403 385.907C497.403 384.917 497.778 384.149 498.528 383.604C499.284 383.054 500.345 382.778 501.71 382.778H503.292V382.031C503.292 381.463 503.122 381.012 502.782 380.678C502.442 380.338 501.941 380.168 501.279 380.168C500.699 380.168 500.213 380.314 499.82 380.607C499.428 380.9 499.231 381.255 499.231 381.671H497.597C497.597 381.196 497.764 380.739 498.098 380.3C498.438 379.854 498.895 379.503 499.469 379.245C500.049 378.987 500.685 378.858 501.376 378.858C502.472 378.858 503.33 379.134 503.951 379.685C504.572 380.229 504.895 380.982 504.918 381.943V386.32C504.918 387.193 505.029 387.888 505.252 388.403V388.544H503.547ZM500.849 387.305C501.358 387.305 501.842 387.173 502.299 386.909C502.756 386.646 503.087 386.303 503.292 385.881V383.93H502.018C500.025 383.93 499.029 384.513 499.029 385.679C499.029 386.188 499.199 386.587 499.539 386.874C499.879 387.161 500.315 387.305 500.849 387.305ZM502.483 377.628H501.086L498.818 375.044H500.778L502.483 377.628ZM510.438 386.162L512.652 379.034H514.393L510.569 390.012C509.978 391.594 509.037 392.385 507.748 392.385L507.44 392.358L506.834 392.244V390.926L507.273 390.961C507.824 390.961 508.252 390.85 508.557 390.627C508.867 390.404 509.122 389.997 509.321 389.405L509.682 388.438L506.289 379.034H508.064L510.438 386.162Z" fill="#224580"/>
<path d="M515.629 365.574C516.215 364.988 516.215 364.038 515.629 363.452L506.083 353.906C505.498 353.321 504.548 353.321 503.962 353.906C503.376 354.492 503.376 355.442 503.962 356.028L512.447 364.513L503.962 372.998C503.376 373.584 503.376 374.534 503.962 375.12C504.548 375.705 505.498 375.705 506.083 375.12L515.629 365.574ZM62.2705 366.013H514.569V363.013H62.2705V366.013Z" fill="#224580"/>
<path d="M63.8185 18.9393C63.2327 18.3535 62.2829 18.3535 61.6972 18.9393L52.1512 28.4853C51.5654 29.071 51.5654 30.0208 52.1512 30.6066C52.737 31.1924 53.6867 31.1924 54.2725 30.6066L62.7578 22.1213L71.2431 30.6066C71.8289 31.1924 72.7786 31.1924 73.3644 30.6066C73.9502 30.0208 73.9502 29.071 73.3644 28.4853L63.8185 18.9393ZM64.2578 364.513L64.2578 20H61.2578L61.2578 364.513H64.2578Z" fill="#884DFB"/>
<path d="M18.7207 32.9658L18.9668 34.6533L19.3271 33.1328L21.8584 24.2031H23.2822L25.752 33.1328L26.1035 34.6797L26.376 32.957L28.3623 24.2031H30.0586L26.9561 37H25.418L22.7812 27.6748L22.5791 26.6992L22.377 27.6748L19.6436 37H18.1055L15.0117 24.2031H16.6992L18.7207 32.9658ZM33.627 31.9902V37H31.9395V24.2031H36.6592C38.0596 24.2031 39.1553 24.5605 39.9463 25.2754C40.7432 25.9902 41.1416 26.9365 41.1416 28.1143C41.1416 29.3564 40.752 30.3145 39.9727 30.9883C39.1992 31.6562 38.0889 31.9902 36.6416 31.9902H33.627ZM33.627 30.6104H36.6592C37.5615 30.6104 38.2529 30.3994 38.7334 29.9775C39.2139 29.5498 39.4541 28.9346 39.4541 28.1318C39.4541 27.3701 39.2139 26.7607 38.7334 26.3037C38.2529 25.8467 37.5938 25.6094 36.7559 25.5918H33.627V30.6104ZM45.4746 24.2031L49.6582 34.6445L53.8418 24.2031H56.0303V37H54.3428V32.0166L54.501 26.6377L50.2998 37H49.0078L44.8154 26.6641L44.9824 32.0166V37H43.2949V24.2031H45.4746Z" fill="#884DFB"/>
<path d="M32.2554 326.145H30.6206V315.308L27.3423 316.512V315.036L32.0005 313.287H32.2554V326.145ZM45.0435 320.687C45.0435 322.591 44.7183 324.006 44.0679 324.932C43.4175 325.858 42.4009 326.321 41.0181 326.321C39.6529 326.321 38.6421 325.87 37.9859 324.967C37.3296 324.059 36.9898 322.706 36.9663 320.907V318.736C36.9663 316.855 37.2915 315.458 37.9419 314.543C38.5923 313.629 39.6118 313.172 41.0005 313.172C42.3775 313.172 43.3911 313.615 44.0415 314.5C44.6919 315.378 45.0259 316.738 45.0435 318.578V320.687ZM43.4175 318.463C43.4175 317.086 43.2242 316.084 42.8374 315.458C42.4507 314.825 41.8384 314.508 41.0005 314.508C40.1685 314.508 39.562 314.822 39.1812 315.449C38.8003 316.076 38.604 317.04 38.5923 318.34V320.942C38.5923 322.325 38.7915 323.347 39.19 324.009C39.5943 324.666 40.2036 324.994 41.0181 324.994C41.8208 324.994 42.4156 324.683 42.8023 324.062C43.1949 323.441 43.3999 322.462 43.4175 321.126V318.463Z" fill="#884DFB"/>
<path d="M35.2964 265.504H26.9117V264.335L31.3413 259.413C31.9976 258.669 32.4488 258.065 32.6949 257.602C32.9468 257.134 33.0728 256.65 33.0728 256.152C33.0728 255.484 32.8706 254.936 32.4663 254.509C32.062 254.081 31.523 253.867 30.8492 253.867C30.0406 253.867 29.4107 254.098 28.9595 254.561C28.5142 255.018 28.2915 255.657 28.2915 256.477H26.6656C26.6656 255.3 27.0435 254.347 27.7993 253.621C28.5611 252.894 29.5777 252.531 30.8492 252.531C32.0386 252.531 32.979 252.844 33.6704 253.471C34.3618 254.093 34.7076 254.922 34.7076 255.959C34.7076 257.219 33.9048 258.719 32.2993 260.459L28.8716 264.177H35.2964V265.504ZM45.0435 260.046C45.0435 261.95 44.7183 263.365 44.0679 264.291C43.4175 265.217 42.4009 265.679 41.0181 265.679C39.6529 265.679 38.6421 265.228 37.9859 264.326C37.3296 263.418 36.9898 262.064 36.9663 260.265V258.094C36.9663 256.214 37.2915 254.816 37.9419 253.902C38.5923 252.988 39.6118 252.531 41.0005 252.531C42.3775 252.531 43.3911 252.973 44.0415 253.858C44.6919 254.737 45.0259 256.096 45.0435 257.936V260.046ZM43.4175 257.822C43.4175 256.445 43.2242 255.443 42.8374 254.816C42.4507 254.183 41.8384 253.867 41.0005 253.867C40.1685 253.867 39.562 254.18 39.1812 254.807C38.8003 255.434 38.604 256.398 38.5923 257.699V260.301C38.5923 261.683 38.7915 262.706 39.19 263.368C39.5943 264.024 40.2036 264.352 41.0181 264.352C41.8208 264.352 42.4156 264.042 42.8023 263.421C43.1949 262.8 43.3999 261.821 43.4175 260.485V257.822Z" fill="#884DFB"/>
<path d="M29.2759 197.673H30.4976C31.2652 197.661 31.8687 197.459 32.3081 197.066C32.7476 196.674 32.9673 196.144 32.9673 195.476C32.9673 193.976 32.2202 193.226 30.7261 193.226C30.023 193.226 29.4605 193.428 29.0386 193.832C28.6226 194.23 28.4146 194.761 28.4146 195.423H26.7886C26.7886 194.409 27.1577 193.568 27.896 192.9C28.6402 192.227 29.5835 191.89 30.7261 191.89C31.9331 191.89 32.8794 192.209 33.565 192.848C34.2505 193.486 34.5933 194.374 34.5933 195.511C34.5933 196.067 34.4117 196.606 34.0484 197.128C33.6909 197.649 33.2017 198.039 32.5806 198.297C33.2837 198.52 33.8257 198.889 34.2066 199.404C34.5933 199.92 34.7867 200.55 34.7867 201.294C34.7867 202.442 34.4117 203.354 33.6617 204.027C32.9117 204.701 31.9361 205.038 30.7349 205.038C29.5337 205.038 28.5552 204.713 27.7993 204.062C27.0493 203.412 26.6743 202.554 26.6743 201.487H28.3091C28.3091 202.161 28.5288 202.7 28.9683 203.104C29.4077 203.509 29.9966 203.711 30.7349 203.711C31.5201 203.711 32.1206 203.506 32.5367 203.096C32.9527 202.686 33.1607 202.097 33.1607 201.329C33.1607 200.585 32.9322 200.014 32.4751 199.615C32.0181 199.217 31.3589 199.012 30.4976 199H29.2759V197.673ZM45.0435 199.404C45.0435 201.309 44.7183 202.724 44.0679 203.649C43.4175 204.575 42.4009 205.038 41.0181 205.038C39.6529 205.038 38.6421 204.587 37.9859 203.685C37.3296 202.776 36.9898 201.423 36.9663 199.624V197.453C36.9663 195.572 37.2915 194.175 37.9419 193.261C38.5923 192.347 39.6118 191.89 41.0005 191.89C42.3775 191.89 43.3911 192.332 44.0415 193.217C44.6919 194.096 45.0259 195.455 45.0435 197.295V199.404ZM43.4175 197.181C43.4175 195.804 43.2242 194.802 42.8374 194.175C42.4507 193.542 41.8384 193.226 41.0005 193.226C40.1685 193.226 39.562 193.539 39.1812 194.166C38.8003 194.793 38.604 195.757 38.5923 197.058V199.659C38.5923 201.042 38.7915 202.064 39.19 202.727C39.5943 203.383 40.2036 203.711 41.0181 203.711C41.8208 203.711 42.4156 203.4 42.8023 202.779C43.1949 202.158 43.3999 201.18 43.4175 199.844V197.181Z" fill="#884DFB"/>
<path d="M33.7759 139.923H35.5513V141.25H33.7759V144.221H32.1411V141.25H26.314V140.292L32.0445 131.424H33.7759V139.923ZM28.1597 139.923H32.1411V133.648L31.9478 133.999L28.1597 139.923ZM45.0435 138.763C45.0435 140.667 44.7183 142.082 44.0679 143.008C43.4175 143.934 42.4009 144.397 41.0181 144.397C39.6529 144.397 38.6421 143.946 37.9859 143.043C37.3296 142.135 36.9898 140.781 36.9663 138.983V136.812C36.9663 134.931 37.2915 133.533 37.9419 132.619C38.5923 131.705 39.6118 131.248 41.0005 131.248C42.3775 131.248 43.3911 131.691 44.0415 132.575C44.6919 133.454 45.0259 134.814 45.0435 136.654V138.763ZM43.4175 136.539C43.4175 135.162 43.2242 134.16 42.8374 133.533C42.4507 132.901 41.8384 132.584 41.0005 132.584C40.1685 132.584 39.562 132.898 39.1812 133.525C38.8003 134.152 38.604 135.115 38.5923 136.416V139.018C38.5923 140.401 38.7915 141.423 39.19 142.085C39.5943 142.741 40.2036 143.07 41.0181 143.07C41.8208 143.07 42.4156 142.759 42.8023 142.138C43.1949 141.517 43.3999 140.538 43.4175 139.202V136.539Z" fill="#884DFB"/>
<path d="M27.6587 77.1636L28.3091 70.7827H34.8658V72.2856H29.689L29.3023 75.7749C29.9292 75.4058 30.6411 75.2212 31.438 75.2212C32.604 75.2212 33.5298 75.6079 34.2154 76.3813C34.9009 77.1489 35.2437 78.189 35.2437 79.5015C35.2437 80.8198 34.8863 81.8599 34.1714 82.6216C33.4624 83.3774 32.4693 83.7554 31.1919 83.7554C30.0611 83.7554 29.1382 83.4419 28.4234 82.8149C27.7085 82.188 27.3013 81.3208 27.2017 80.2134H28.7398C28.8394 80.9458 29.1001 81.4995 29.522 81.8745C29.9439 82.2437 30.5005 82.4282 31.1919 82.4282C31.9478 82.4282 32.5396 82.1704 32.9673 81.6548C33.4009 81.1392 33.6177 80.4272 33.6177 79.519C33.6177 78.6636 33.3833 77.978 32.9146 77.4624C32.4517 76.9409 31.8335 76.6802 31.0601 76.6802C30.3511 76.6802 29.7945 76.8354 29.3902 77.146L28.9595 77.4976L27.6587 77.1636ZM45.0435 78.1216C45.0435 80.0259 44.7183 81.4409 44.0679 82.3667C43.4175 83.2925 42.4009 83.7554 41.0181 83.7554C39.6529 83.7554 38.6421 83.3042 37.9859 82.4019C37.3296 81.4937 36.9898 80.1401 36.9663 78.3413V76.1704C36.9663 74.2896 37.2915 72.8921 37.9419 71.978C38.5923 71.064 39.6118 70.6069 41.0005 70.6069C42.3775 70.6069 43.3911 71.0493 44.0415 71.9341C44.6919 72.813 45.0259 74.1724 45.0435 76.0122V78.1216ZM43.4175 75.8979C43.4175 74.521 43.2242 73.519 42.8374 72.8921C42.4507 72.2593 41.8384 71.9429 41.0005 71.9429C40.1685 71.9429 39.562 72.2563 39.1812 72.8833C38.8003 73.5103 38.604 74.4741 38.5923 75.7749V78.3765C38.5923 79.7593 38.7915 80.7817 39.19 81.4438C39.5943 82.1001 40.2036 82.4282 41.0181 82.4282C41.8208 82.4282 42.4156 82.1177 42.8023 81.4966C43.1949 80.8755 43.3999 79.897 43.4175 78.561V75.8979Z" fill="#884DFB"/>
<path d="M473.818 18.9393C473.233 18.3535 472.283 18.3535 471.697 18.9393L462.151 28.4853C461.565 29.071 461.565 30.0208 462.151 30.6066C462.737 31.1924 463.687 31.1924 464.273 30.6066L472.758 22.1213L481.243 30.6066C481.829 31.1924 482.779 31.1924 483.364 30.6066C483.95 30.0208 483.95 29.071 483.364 28.4853L473.818 18.9393ZM474.258 364.513V20H471.258V364.513H474.258Z" fill="#17A2B8"/>
<path d="M489.331 26.6641C489.331 25.8965 489.574 25.2637 490.061 24.7656C490.553 24.2676 491.183 24.0186 491.95 24.0186C492.729 24.0186 493.359 24.2705 493.84 24.7744C494.326 25.2725 494.569 25.9199 494.569 26.7168V27.3408C494.569 28.1143 494.323 28.7471 493.831 29.2393C493.345 29.7256 492.724 29.9688 491.968 29.9688C491.206 29.9688 490.576 29.7256 490.078 29.2393C489.58 28.7471 489.331 28.0938 489.331 27.2793V26.6641ZM490.544 27.3408C490.544 27.7979 490.673 28.1758 490.931 28.4746C491.188 28.7676 491.534 28.9141 491.968 28.9141C492.384 28.9141 492.718 28.7705 492.97 28.4834C493.228 28.1963 493.356 27.8037 493.356 27.3057V26.6641C493.356 26.207 493.23 25.8291 492.979 25.5303C492.727 25.2314 492.384 25.082 491.95 25.082C491.517 25.082 491.174 25.2314 490.922 25.5303C490.67 25.8291 490.544 26.2188 490.544 26.6992V27.3408ZM495.562 33.8623C495.562 33.0947 495.806 32.4648 496.292 31.9727C496.784 31.4746 497.414 31.2256 498.182 31.2256C498.949 31.2256 499.579 31.4717 500.071 31.9639C500.563 32.4561 500.81 33.1094 500.81 33.9238V34.5479C500.81 35.3154 500.563 35.9482 500.071 36.4463C499.585 36.9385 498.961 37.1846 498.199 37.1846C497.438 37.1846 496.808 36.9414 496.31 36.4551C495.812 35.9629 495.562 35.3096 495.562 34.4951V33.8623ZM496.775 34.5479C496.775 35.0107 496.904 35.3916 497.162 35.6904C497.42 35.9834 497.766 36.1299 498.199 36.1299C498.621 36.1299 498.958 35.9863 499.21 35.6992C499.462 35.4062 499.588 35.0107 499.588 34.5127V33.8623C499.588 33.3994 499.459 33.0215 499.201 32.7285C498.949 32.4355 498.609 32.2891 498.182 32.2891C497.766 32.2891 497.426 32.4355 497.162 32.7285C496.904 33.0156 496.775 33.4053 496.775 33.8975V34.5479ZM492.337 36.0332L491.414 35.4531L497.663 25.4512L498.586 26.0312L492.337 36.0332Z" fill="#17A2B8"/>
<path d="M494.296 326.145H485.912V324.976L490.341 320.054C490.998 319.31 491.449 318.707 491.695 318.244C491.947 317.775 492.073 317.292 492.073 316.793C492.073 316.125 491.871 315.578 491.466 315.15C491.062 314.722 490.523 314.508 489.849 314.508C489.041 314.508 488.411 314.74 487.96 315.203C487.514 315.66 487.292 316.298 487.292 317.119H485.666C485.666 315.941 486.043 314.989 486.799 314.262C487.561 313.536 488.578 313.172 489.849 313.172C491.039 313.172 491.979 313.486 492.67 314.113C493.362 314.734 493.708 315.563 493.708 316.6C493.708 317.86 492.905 319.36 491.299 321.1L487.872 324.818H494.296V326.145ZM504.043 320.687C504.043 322.591 503.718 324.006 503.068 324.932C502.418 325.858 501.401 326.321 500.018 326.321C498.653 326.321 497.642 325.87 496.986 324.967C496.33 324.059 495.99 322.706 495.966 320.907V318.736C495.966 316.855 496.292 315.458 496.942 314.543C497.592 313.629 498.612 313.172 500.001 313.172C501.377 313.172 502.391 313.615 503.042 314.5C503.692 315.378 504.026 316.738 504.043 318.578V320.687ZM502.418 318.463C502.418 317.086 502.224 316.084 501.837 315.458C501.451 314.825 500.838 314.508 500.001 314.508C499.168 314.508 498.562 314.822 498.181 315.449C497.8 316.076 497.604 317.04 497.592 318.34V320.942C497.592 322.325 497.792 323.347 498.19 324.009C498.594 324.666 499.204 324.994 500.018 324.994C500.821 324.994 501.416 324.683 501.802 324.062C502.195 323.441 502.4 322.462 502.418 321.126V318.463Z" fill="#17A2B8"/>
<path d="M492.776 261.206H494.551V262.533H492.776V265.504H491.141V262.533H485.314V261.575L491.044 252.707H492.776V261.206ZM487.16 261.206H491.141V254.93L490.948 255.282L487.16 261.206ZM504.043 260.046C504.043 261.95 503.718 263.365 503.068 264.291C502.418 265.217 501.401 265.679 500.018 265.679C498.653 265.679 497.642 265.228 496.986 264.326C496.33 263.418 495.99 262.064 495.966 260.265V258.094C495.966 256.214 496.292 254.816 496.942 253.902C497.592 252.988 498.612 252.531 500.001 252.531C501.377 252.531 502.391 252.973 503.042 253.858C503.692 254.737 504.026 256.096 504.043 257.936V260.046ZM502.418 257.822C502.418 256.445 502.224 255.443 501.837 254.816C501.451 254.183 500.838 253.867 500.001 253.867C499.168 253.867 498.562 254.18 498.181 254.807C497.8 255.434 497.604 256.398 497.592 257.699V260.301C497.592 261.683 497.792 262.706 498.19 263.368C498.594 264.024 499.204 264.352 500.018 264.352C500.821 264.352 501.416 264.042 501.802 263.421C502.195 262.8 502.4 261.821 502.418 260.485V257.822Z" fill="#17A2B8"/>
<path d="M492.293 192.057V193.437H491.994C490.728 193.46 489.72 193.835 488.97 194.562C488.22 195.288 487.787 196.311 487.669 197.629C488.343 196.855 489.263 196.469 490.429 196.469C491.543 196.469 492.43 196.861 493.092 197.646C493.76 198.432 494.094 199.445 494.094 200.688C494.094 202.006 493.734 203.061 493.013 203.852C492.298 204.643 491.337 205.038 490.13 205.038C488.906 205.038 487.913 204.569 487.151 203.632C486.389 202.688 486.008 201.476 486.008 199.993V199.369C486.008 197.014 486.509 195.215 487.511 193.973C488.519 192.725 490.016 192.086 492.002 192.057H492.293ZM490.157 197.822C489.6 197.822 489.087 197.989 488.619 198.323C488.15 198.657 487.825 199.076 487.643 199.58V200.178C487.643 201.232 487.88 202.082 488.355 202.727C488.83 203.371 489.421 203.693 490.13 203.693C490.863 203.693 491.437 203.424 491.853 202.885C492.275 202.346 492.486 201.64 492.486 200.767C492.486 199.888 492.272 199.179 491.844 198.64C491.422 198.095 490.86 197.822 490.157 197.822ZM504.043 199.404C504.043 201.309 503.718 202.724 503.068 203.649C502.418 204.575 501.401 205.038 500.018 205.038C498.653 205.038 497.642 204.587 496.986 203.685C496.33 202.776 495.99 201.423 495.966 199.624V197.453C495.966 195.572 496.292 194.175 496.942 193.261C497.592 192.347 498.612 191.89 500.001 191.89C501.377 191.89 502.391 192.332 503.042 193.217C503.692 194.096 504.026 195.455 504.043 197.295V199.404ZM502.418 197.181C502.418 195.804 502.224 194.802 501.837 194.175C501.451 193.542 500.838 193.226 500.001 193.226C499.168 193.226 498.562 193.539 498.181 194.166C497.8 194.793 497.604 195.757 497.592 197.058V199.659C497.592 201.042 497.792 202.064 498.19 202.727C498.594 203.383 499.204 203.711 500.018 203.711C500.821 203.711 501.416 203.4 501.802 202.779C502.195 202.158 502.4 201.18 502.418 199.844V197.181Z" fill="#17A2B8"/>
<path d="M493.672 134.764C493.672 135.403 493.502 135.971 493.163 136.469C492.829 136.967 492.375 137.357 491.8 137.638C492.468 137.925 492.996 138.344 493.382 138.895C493.775 139.446 493.971 140.07 493.971 140.767C493.971 141.874 493.596 142.756 492.846 143.412C492.102 144.069 491.121 144.397 489.902 144.397C488.671 144.397 487.684 144.069 486.94 143.412C486.202 142.75 485.833 141.868 485.833 140.767C485.833 140.075 486.02 139.451 486.395 138.895C486.776 138.338 487.3 137.916 487.968 137.629C487.4 137.348 486.952 136.958 486.624 136.46C486.295 135.962 486.131 135.397 486.131 134.764C486.131 133.686 486.477 132.83 487.168 132.198C487.86 131.565 488.771 131.248 489.902 131.248C491.027 131.248 491.935 131.565 492.626 132.198C493.324 132.83 493.672 133.686 493.672 134.764ZM492.345 140.732C492.345 140.017 492.117 139.434 491.66 138.983C491.209 138.531 490.617 138.306 489.884 138.306C489.152 138.306 488.563 138.529 488.118 138.974C487.678 139.419 487.459 140.005 487.459 140.732C487.459 141.458 487.672 142.03 488.1 142.446C488.534 142.862 489.134 143.07 489.902 143.07C490.664 143.07 491.261 142.862 491.695 142.446C492.128 142.024 492.345 141.452 492.345 140.732ZM489.902 132.584C489.263 132.584 488.745 132.783 488.346 133.182C487.954 133.574 487.757 134.111 487.757 134.79C487.757 135.441 487.951 135.968 488.337 136.372C488.73 136.771 489.251 136.97 489.902 136.97C490.552 136.97 491.071 136.771 491.458 136.372C491.85 135.968 492.046 135.441 492.046 134.79C492.046 134.14 491.844 133.61 491.44 133.199C491.036 132.789 490.523 132.584 489.902 132.584ZM504.043 138.763C504.043 140.667 503.718 142.082 503.068 143.008C502.418 143.934 501.401 144.397 500.018 144.397C498.653 144.397 497.642 143.946 496.986 143.043C496.33 142.135 495.99 140.781 495.966 138.983V136.812C495.966 134.931 496.292 133.533 496.942 132.619C497.592 131.705 498.612 131.248 500.001 131.248C501.377 131.248 502.391 131.691 503.042 132.575C503.692 133.454 504.026 134.814 504.043 136.654V138.763ZM502.418 136.539C502.418 135.162 502.224 134.16 501.837 133.533C501.451 132.901 500.838 132.584 500.001 132.584C499.168 132.584 498.562 132.898 498.181 133.525C497.8 134.152 497.604 135.115 497.592 136.416V139.018C497.592 140.401 497.792 141.423 498.19 142.085C498.594 142.741 499.204 143.07 500.018 143.07C500.821 143.07 501.416 142.759 501.802 142.138C502.195 141.517 502.4 140.538 502.418 139.202V136.539Z" fill="#17A2B8"/>
<path d="M486.468 83.5796H484.833V72.7427L481.555 73.9468V72.4702L486.213 70.7212H486.468V83.5796ZM499.256 78.1216C499.256 80.0259 498.931 81.4409 498.28 82.3667C497.63 83.2925 496.613 83.7554 495.23 83.7554C493.865 83.7554 492.854 83.3042 492.198 82.4019C491.542 81.4937 491.202 80.1401 491.179 78.3413V76.1704C491.179 74.2896 491.504 72.8921 492.154 71.978C492.805 71.064 493.824 70.6069 495.213 70.6069C496.59 70.6069 497.604 71.0493 498.254 71.9341C498.904 72.813 499.238 74.1724 499.256 76.0122V78.1216ZM497.63 75.8979C497.63 74.521 497.437 73.519 497.05 72.8921C496.663 72.2593 496.051 71.9429 495.213 71.9429C494.381 71.9429 493.774 72.2563 493.394 72.8833C493.013 73.5103 492.816 74.4741 492.805 75.7749V78.3765C492.805 79.7593 493.004 80.7817 493.402 81.4438C493.807 82.1001 494.416 82.4282 495.23 82.4282C496.033 82.4282 496.628 82.1177 497.015 81.4966C497.407 80.8755 497.612 79.897 497.63 78.561V75.8979ZM509.363 78.1216C509.363 80.0259 509.038 81.4409 508.388 82.3667C507.737 83.2925 506.721 83.7554 505.338 83.7554C503.973 83.7554 502.962 83.3042 502.306 82.4019C501.649 81.4937 501.31 80.1401 501.286 78.3413V76.1704C501.286 74.2896 501.611 72.8921 502.262 71.978C502.912 71.064 503.932 70.6069 505.32 70.6069C506.697 70.6069 507.711 71.0493 508.361 71.9341C509.012 72.813 509.346 74.1724 509.363 76.0122V78.1216ZM507.737 75.8979C507.737 74.521 507.544 73.519 507.157 72.8921C506.771 72.2593 506.158 71.9429 505.32 71.9429C504.488 71.9429 503.882 72.2563 503.501 72.8833C503.12 73.5103 502.924 74.4741 502.912 75.7749V78.3765C502.912 79.7593 503.111 80.7817 503.51 81.4438C503.914 82.1001 504.523 82.4282 505.338 82.4282C506.141 82.4282 506.735 82.1177 507.122 81.4966C507.515 80.8755 507.72 79.897 507.737 78.561V75.8979Z" fill="#17A2B8"/>
<path d="M63 228.5L134.5 204L208.5 196.5L304 177.5L412 204L463.5 140.5" stroke="#884DFB" stroke-width="3"/>
<path d="M62.5 107L154 117.5L257 147.5L358.5 136L452 112" stroke="#17A2B8" stroke-width="3"/>
<path d="M235.301 19.7852C234.684 20.5898 233.828 21.1992 232.734 21.6133C231.641 22.0273 230.398 22.2344 229.008 22.2344C227.578 22.2344 226.312 21.9102 225.211 21.2617C224.109 20.6133 223.258 19.6875 222.656 18.4844C222.062 17.2734 221.754 15.8633 221.73 14.2539V12.918C221.73 10.3398 222.348 8.32812 223.582 6.88281C224.816 5.42969 226.539 4.70312 228.75 4.70312C230.648 4.70312 232.156 5.17188 233.273 6.10938C234.391 7.04688 235.062 8.39844 235.289 10.1641H232.383C232.055 8.10938 230.863 7.08203 228.809 7.08203C227.48 7.08203 226.469 7.5625 225.773 8.52344C225.086 9.47656 224.73 10.8789 224.707 12.7305V14.043C224.707 15.8867 225.094 17.3203 225.867 18.3438C226.648 19.3594 227.73 19.8672 229.113 19.8672C230.629 19.8672 231.707 19.5234 232.348 18.8359V15.4961H228.832V13.2461H235.301V19.7852ZM237.75 15.543C237.75 14.3008 237.996 13.1836 238.488 12.1914C238.98 11.1914 239.672 10.4258 240.562 9.89453C241.453 9.35547 242.477 9.08594 243.633 9.08594C245.344 9.08594 246.73 9.63672 247.793 10.7383C248.863 11.8398 249.441 13.3008 249.527 15.1211L249.539 15.7891C249.539 17.0391 249.297 18.1562 248.812 19.1406C248.336 20.125 247.648 20.8867 246.75 21.4258C245.859 21.9648 244.828 22.2344 243.656 22.2344C241.867 22.2344 240.434 21.6406 239.355 20.4531C238.285 19.2578 237.75 17.668 237.75 15.6836V15.543ZM240.598 15.7891C240.598 17.0938 240.867 18.1172 241.406 18.8594C241.945 19.5938 242.695 19.9609 243.656 19.9609C244.617 19.9609 245.363 19.5859 245.895 18.8359C246.434 18.0859 246.703 16.9883 246.703 15.543C246.703 14.2617 246.426 13.2461 245.871 12.4961C245.324 11.7461 244.578 11.3711 243.633 11.3711C242.703 11.3711 241.965 11.7422 241.418 12.4844C240.871 13.2188 240.598 14.3203 240.598 15.7891ZM247.875 4.25781C247.875 5.11719 247.625 5.83203 247.125 6.40234C246.633 6.97266 246.012 7.25781 245.262 7.25781C244.957 7.25781 244.691 7.22656 244.465 7.16406C244.246 7.09375 243.93 6.94141 243.516 6.70703C243.109 6.47266 242.82 6.33203 242.648 6.28516C242.484 6.23828 242.301 6.21484 242.098 6.21484C241.801 6.21484 241.547 6.32813 241.336 6.55469C241.133 6.77344 241.031 7.0625 241.031 7.42188L239.285 7.32812C239.285 6.46875 239.531 5.74609 240.023 5.16016C240.523 4.57422 241.145 4.28125 241.887 4.28125C242.332 4.28125 242.867 4.45703 243.492 4.80859C244.125 5.16016 244.645 5.33594 245.051 5.33594C245.348 5.33594 245.602 5.22656 245.812 5.00781C246.023 4.78125 246.129 4.48437 246.129 4.11719L247.875 4.25781ZM269.027 15.7891C269.027 17.75 268.582 19.3164 267.691 20.4883C266.801 21.6523 265.605 22.2344 264.105 22.2344C262.715 22.2344 261.602 21.7773 260.766 20.8633V26.875H257.918V9.32031H260.543L260.66 10.6094C261.496 9.59375 262.633 9.08594 264.07 9.08594C265.617 9.08594 266.828 9.66406 267.703 10.8203C268.586 11.9688 269.027 13.5664 269.027 15.6133V15.7891ZM266.191 15.543C266.191 14.2773 265.938 13.2734 265.43 12.5312C264.93 11.7891 264.211 11.418 263.273 11.418C262.109 11.418 261.273 11.8984 260.766 12.8594V18.4844C261.281 19.4688 262.125 19.9609 263.297 19.9609C264.203 19.9609 264.91 19.5977 265.418 18.8711C265.934 18.1367 266.191 17.0273 266.191 15.543ZM274.254 10.7031C275.184 9.625 276.359 9.08594 277.781 9.08594C280.484 9.08594 281.855 10.6289 281.895 13.7148V22H279.047V13.8203C279.047 12.9453 278.855 12.3281 278.473 11.9688C278.098 11.6016 277.543 11.418 276.809 11.418C275.668 11.418 274.816 11.9258 274.254 12.9414V22H271.406V4H274.254V10.7031ZM287.848 22H285V9.32031H287.848V22ZM287.309 4.08203H290.555L287.309 7.63281H285.023L287.309 4.08203ZM293.766 9.32031L293.848 10.6445C294.738 9.60547 295.957 9.08594 297.504 9.08594C299.199 9.08594 300.359 9.73438 300.984 11.0312C301.906 9.73438 303.203 9.08594 304.875 9.08594C306.273 9.08594 307.312 9.47266 307.992 10.2461C308.68 11.0195 309.031 12.1602 309.047 13.668V22H306.199V13.75C306.199 12.9453 306.023 12.3555 305.672 11.9805C305.32 11.6055 304.738 11.418 303.926 11.418C303.277 11.418 302.746 11.5938 302.332 11.9453C301.926 12.2891 301.641 12.7422 301.477 13.3047L301.488 22H298.641V13.6562C298.602 12.1641 297.84 11.418 296.355 11.418C295.215 11.418 294.406 11.8828 293.93 12.8125V22H291.082V9.32031H293.766Z" fill="#224580"/>
</g>
<defs>
<filter id="filter0_d" x="0" y="0" width="530" height="420" filterUnits="userSpaceOnUse" color-interpolation-filters="sRGB">
<feFlood flood-opacity="0" result="BackgroundImageFix"/>
<feColorMatrix in="SourceAlpha" type="matrix" values="0 0 0 0 0 0 0 0 0 0 0 0 0 0 0 0 0 0 127 0"/>
<feOffset dy="4"/>
<feGaussianBlur stdDeviation="2"/>
<feColorMatrix type="matrix" values="0 0 0 0 0 0 0 0 0 0 0 0 0 0 0 0 0 0 0.25 0"/>
<feBlend mode="normal" in2="BackgroundImageFix" result="effect1_dropShadow"/>
<feBlend mode="normal" in="SourceGraphic" in2="effect1_dropShadow" result="shape"/>
</filter>
</defs>
</svg>
