<svg width="202" height="546" viewBox="0 0 202 546" fill="none" xmlns="http://www.w3.org/2000/svg">
<line x1="77" y1="532" x2="77" y2="372" stroke="#FF0000" stroke-width="10"/>
<line x1="77" y1="373" x2="77" y2="213" stroke="#FFC107" stroke-width="10"/>
<line x1="77" y1="213" x2="77" y2="53" stroke="#28A745" stroke-width="10"/>
<path d="M103.492 452H101.23L92.6406 438.852V452H90.3789V434.938H92.6406L101.254 448.145V434.938H103.492V452ZM106.633 445.555C106.633 443.578 107.09 442.008 108.004 440.844C108.918 439.672 110.129 439.086 111.637 439.086C113.184 439.086 114.391 439.633 115.258 440.727L115.363 439.32H117.344V451.695C117.344 453.336 116.855 454.629 115.879 455.574C114.91 456.52 113.605 456.992 111.965 456.992C111.051 456.992 110.156 456.797 109.281 456.406C108.406 456.016 107.738 455.48 107.277 454.801L108.402 453.5C109.332 454.648 110.469 455.223 111.812 455.223C112.867 455.223 113.688 454.926 114.273 454.332C114.867 453.738 115.164 452.902 115.164 451.824V450.734C114.297 451.734 113.113 452.234 111.613 452.234C110.129 452.234 108.926 451.637 108.004 450.441C107.09 449.246 106.633 447.617 106.633 445.555ZM108.812 445.801C108.812 447.23 109.105 448.355 109.691 449.176C110.277 449.988 111.098 450.395 112.152 450.395C113.52 450.395 114.523 449.773 115.164 448.531V442.742C114.5 441.531 113.504 440.926 112.176 440.926C111.121 440.926 110.297 441.336 109.703 442.156C109.109 442.977 108.812 444.191 108.812 445.801ZM122.793 440.855C123.754 439.676 125.004 439.086 126.543 439.086C129.223 439.086 130.574 440.598 130.598 443.621V452H128.43V443.609C128.422 442.695 128.211 442.02 127.797 441.582C127.391 441.145 126.754 440.926 125.887 440.926C125.184 440.926 124.566 441.113 124.035 441.488C123.504 441.863 123.09 442.355 122.793 442.965V452H120.625V434H122.793V440.855ZM136.199 452H134.031V439.32H136.199V452ZM133.855 435.957C133.855 435.605 133.961 435.309 134.172 435.066C134.391 434.824 134.711 434.703 135.133 434.703C135.555 434.703 135.875 434.824 136.094 435.066C136.312 435.309 136.422 435.605 136.422 435.957C136.422 436.309 136.312 436.602 136.094 436.836C135.875 437.07 135.555 437.188 135.133 437.188C134.711 437.188 134.391 437.07 134.172 436.836C133.961 436.602 133.855 436.309 133.855 435.957ZM144.941 452.234C143.223 452.234 141.824 451.672 140.746 450.547C139.668 449.414 139.129 447.902 139.129 446.012V445.613C139.129 444.355 139.367 443.234 139.844 442.25C140.328 441.258 141 440.484 141.859 439.93C142.727 439.367 143.664 439.086 144.672 439.086C146.32 439.086 147.602 439.629 148.516 440.715C149.43 441.801 149.887 443.355 149.887 445.379V446.281H141.297C141.328 447.531 141.691 448.543 142.387 449.316C143.09 450.082 143.98 450.465 145.059 450.465C145.824 450.465 146.473 450.309 147.004 449.996C147.535 449.684 148 449.27 148.398 448.754L149.723 449.785C148.66 451.418 147.066 452.234 144.941 452.234ZM144.672 440.867C143.797 440.867 143.062 441.188 142.469 441.828C141.875 442.461 141.508 443.352 141.367 444.5H147.719V444.336C147.656 443.234 147.359 442.383 146.828 441.781C146.297 441.172 145.578 440.867 144.672 440.867ZM148.211 437.211V437.328H146.418L144.66 435.336L142.914 437.328H141.121V437.188L144.004 434H145.316L148.211 437.211ZM143.336 454.871C143.336 454.52 143.441 454.223 143.652 453.98C143.871 453.738 144.191 453.617 144.613 453.617C145.035 453.617 145.355 453.738 145.574 453.98C145.793 454.223 145.902 454.52 145.902 454.871C145.902 455.223 145.793 455.516 145.574 455.75C145.355 455.984 145.035 456.102 144.613 456.102C144.191 456.102 143.871 455.984 143.652 455.75C143.441 455.516 143.336 455.223 143.336 454.871ZM163.117 445.801C163.117 447.73 162.676 449.285 161.793 450.465C160.91 451.645 159.715 452.234 158.207 452.234C156.668 452.234 155.457 451.746 154.574 450.77V456.875H152.406V439.32H154.387L154.492 440.727C155.375 439.633 156.602 439.086 158.172 439.086C159.695 439.086 160.898 439.66 161.781 440.809C162.672 441.957 163.117 443.555 163.117 445.602V445.801ZM160.949 445.555C160.949 444.125 160.645 442.996 160.035 442.168C159.426 441.34 158.59 440.926 157.527 440.926C156.215 440.926 155.23 441.508 154.574 442.672V448.73C155.223 449.887 156.215 450.465 157.551 450.465C158.59 450.465 159.414 450.055 160.023 449.234C160.641 448.406 160.949 447.18 160.949 445.555ZM171.309 445.555C171.309 443.609 171.77 442.047 172.691 440.867C173.613 439.68 174.82 439.086 176.312 439.086C177.797 439.086 178.973 439.594 179.84 440.609V434H182.008V452H180.016L179.91 450.641C179.043 451.703 177.836 452.234 176.289 452.234C174.82 452.234 173.621 451.633 172.691 450.43C171.77 449.227 171.309 447.656 171.309 445.719V445.555ZM173.477 445.801C173.477 447.238 173.773 448.363 174.367 449.176C174.961 449.988 175.781 450.395 176.828 450.395C178.203 450.395 179.207 449.777 179.84 448.543V442.719C179.191 441.523 178.195 440.926 176.852 440.926C175.789 440.926 174.961 441.336 174.367 442.156C173.773 442.977 173.477 444.191 173.477 445.801ZM198.918 438.312C198.918 439.719 198.629 440.711 198.051 441.289C197.48 441.859 196.57 442.16 195.32 442.191V452H193.258L193.211 450.746C192.367 451.738 191.129 452.234 189.496 452.234C188.145 452.234 187.113 451.844 186.402 451.062C185.699 450.273 185.344 449.109 185.336 447.57V439.32H187.504V447.512C187.504 449.434 188.285 450.395 189.848 450.395C191.504 450.395 192.605 449.777 193.152 448.543V439.32H195.32V440.855C195.852 440.84 196.25 440.766 196.516 440.633C196.781 440.492 196.969 440.281 197.078 440C197.195 439.719 197.254 439.156 197.254 438.312H198.918Z" fill="black"/>
<path d="M101.922 281.586C101.711 283.391 101.043 284.785 99.918 285.77C98.8008 286.746 97.3125 287.234 95.4531 287.234C93.4375 287.234 91.8203 286.512 90.6016 285.066C89.3906 283.621 88.7852 281.688 88.7852 279.266V277.625C88.7852 276.039 89.0664 274.645 89.6289 273.441C90.1992 272.238 91.0039 271.316 92.043 270.676C93.082 270.027 94.2852 269.703 95.6523 269.703C97.4648 269.703 98.918 270.211 100.012 271.227C101.105 272.234 101.742 273.633 101.922 275.422H99.6602C99.4648 274.062 99.0391 273.078 98.3828 272.469C97.7344 271.859 96.8242 271.555 95.6523 271.555C94.2148 271.555 93.0859 272.086 92.2656 273.148C91.4531 274.211 91.0469 275.723 91.0469 277.684V279.336C91.0469 281.188 91.4336 282.66 92.207 283.754C92.9805 284.848 94.0625 285.395 95.4531 285.395C96.7031 285.395 97.6602 285.113 98.3242 284.551C98.9961 283.98 99.4414 282.992 99.6602 281.586H101.922ZM106.832 275.855C107.793 274.676 109.043 274.086 110.582 274.086C113.262 274.086 114.613 275.598 114.637 278.621V287H112.469V278.609C112.461 277.695 112.25 277.02 111.836 276.582C111.43 276.145 110.793 275.926 109.926 275.926C109.223 275.926 108.605 276.113 108.074 276.488C107.543 276.863 107.129 277.355 106.832 277.965V287H104.664V269H106.832V275.855ZM125.711 285.746C124.867 286.738 123.629 287.234 121.996 287.234C120.645 287.234 119.613 286.844 118.902 286.062C118.199 285.273 117.844 284.109 117.836 282.57V274.32H120.004V282.512C120.004 284.434 120.785 285.395 122.348 285.395C124.004 285.395 125.105 284.777 125.652 283.543V274.32H127.82V287H125.758L125.711 285.746ZM135.273 283.824L138.227 274.32H140.547L135.449 288.957C134.66 291.066 133.406 292.121 131.688 292.121L131.277 292.086L130.469 291.934V290.176L131.055 290.223C131.789 290.223 132.359 290.074 132.766 289.777C133.18 289.48 133.52 288.938 133.785 288.148L134.266 286.859L129.742 274.32H132.109L135.273 283.824ZM147.59 287.234C145.871 287.234 144.473 286.672 143.395 285.547C142.316 284.414 141.777 282.902 141.777 281.012V280.613C141.777 279.355 142.016 278.234 142.492 277.25C142.977 276.258 143.648 275.484 144.508 274.93C145.375 274.367 146.312 274.086 147.32 274.086C148.969 274.086 150.25 274.629 151.164 275.715C152.078 276.801 152.535 278.355 152.535 280.379V281.281H143.945C143.977 282.531 144.34 283.543 145.035 284.316C145.738 285.082 146.629 285.465 147.707 285.465C148.473 285.465 149.121 285.309 149.652 284.996C150.184 284.684 150.648 284.27 151.047 283.754L152.371 284.785C151.309 286.418 149.715 287.234 147.59 287.234ZM147.32 275.867C146.445 275.867 145.711 276.188 145.117 276.828C144.523 277.461 144.156 278.352 144.016 279.5H150.367V279.336C150.305 278.234 150.008 277.383 149.477 276.781C148.945 276.172 148.227 275.867 147.32 275.867ZM150.859 272.211V272.328H149.066L147.309 270.336L145.562 272.328H143.77V272.188L146.652 269H147.965L150.859 272.211ZM157.105 274.32L157.176 275.914C158.145 274.695 159.41 274.086 160.973 274.086C163.652 274.086 165.004 275.598 165.027 278.621V287H162.859V278.609C162.852 277.695 162.641 277.02 162.227 276.582C161.82 276.145 161.184 275.926 160.316 275.926C159.613 275.926 158.996 276.113 158.465 276.488C157.934 276.863 157.52 277.355 157.223 277.965V287H155.055V274.32H157.105ZM97.7031 302.32L97.7734 303.914C98.7422 302.695 100.008 302.086 101.57 302.086C104.25 302.086 105.602 303.598 105.625 306.621V315H103.457V306.609C103.449 305.695 103.238 305.02 102.824 304.582C102.418 304.145 101.781 303.926 100.914 303.926C100.211 303.926 99.5938 304.113 99.0625 304.488C98.5312 304.863 98.1172 305.355 97.8203 305.965V315H95.6523V302.32H97.7031ZM108.379 308.555C108.379 306.578 108.836 305.008 109.75 303.844C110.664 302.672 111.875 302.086 113.383 302.086C114.93 302.086 116.137 302.633 117.004 303.727L117.109 302.32H119.09V314.695C119.09 316.336 118.602 317.629 117.625 318.574C116.656 319.52 115.352 319.992 113.711 319.992C112.797 319.992 111.902 319.797 111.027 319.406C110.152 319.016 109.484 318.48 109.023 317.801L110.148 316.5C111.078 317.648 112.215 318.223 113.559 318.223C114.613 318.223 115.434 317.926 116.02 317.332C116.613 316.738 116.91 315.902 116.91 314.824V313.734C116.043 314.734 114.859 315.234 113.359 315.234C111.875 315.234 110.672 314.637 109.75 313.441C108.836 312.246 108.379 310.617 108.379 308.555ZM110.559 308.801C110.559 310.23 110.852 311.355 111.438 312.176C112.023 312.988 112.844 313.395 113.898 313.395C115.266 313.395 116.27 312.773 116.91 311.531V305.742C116.246 304.531 115.25 303.926 113.922 303.926C112.867 303.926 112.043 304.336 111.449 305.156C110.855 305.977 110.559 307.191 110.559 308.801ZM124.539 303.855C125.5 302.676 126.75 302.086 128.289 302.086C130.969 302.086 132.32 303.598 132.344 306.621V315H130.176V306.609C130.168 305.695 129.957 305.02 129.543 304.582C129.137 304.145 128.5 303.926 127.633 303.926C126.93 303.926 126.312 304.113 125.781 304.488C125.25 304.863 124.836 305.355 124.539 305.965V315H122.371V297H124.539V303.855ZM137.945 315H135.777V302.32H137.945V315ZM135.602 298.957C135.602 298.605 135.707 298.309 135.918 298.066C136.137 297.824 136.457 297.703 136.879 297.703C137.301 297.703 137.621 297.824 137.84 298.066C138.059 298.309 138.168 298.605 138.168 298.957C138.168 299.309 138.059 299.602 137.84 299.836C137.621 300.07 137.301 300.188 136.879 300.188C136.457 300.188 136.137 300.07 135.918 299.836C135.707 299.602 135.602 299.309 135.602 298.957ZM146.688 315.234C144.969 315.234 143.57 314.672 142.492 313.547C141.414 312.414 140.875 310.902 140.875 309.012V308.613C140.875 307.355 141.113 306.234 141.59 305.25C142.074 304.258 142.746 303.484 143.605 302.93C144.473 302.367 145.41 302.086 146.418 302.086C148.066 302.086 149.348 302.629 150.262 303.715C151.176 304.801 151.633 306.355 151.633 308.379V309.281H143.043C143.074 310.531 143.438 311.543 144.133 312.316C144.836 313.082 145.727 313.465 146.805 313.465C147.57 313.465 148.219 313.309 148.75 312.996C149.281 312.684 149.746 312.27 150.145 311.754L151.469 312.785C150.406 314.418 148.812 315.234 146.688 315.234ZM146.418 303.867C145.543 303.867 144.809 304.188 144.215 304.828C143.621 305.461 143.254 306.352 143.113 307.5H149.465V307.336C149.402 306.234 149.105 305.383 148.574 304.781C148.043 304.172 147.324 303.867 146.418 303.867ZM149.957 300.211V300.328H148.164L146.406 298.336L144.66 300.328H142.867V300.188L145.75 297H147.062L149.957 300.211ZM145.082 317.871C145.082 317.52 145.188 317.223 145.398 316.98C145.617 316.738 145.938 316.617 146.359 316.617C146.781 316.617 147.102 316.738 147.32 316.98C147.539 317.223 147.648 317.52 147.648 317.871C147.648 318.223 147.539 318.516 147.32 318.75C147.102 318.984 146.781 319.102 146.359 319.102C145.938 319.102 145.617 318.984 145.398 318.75C145.188 318.516 145.082 318.223 145.082 317.871ZM164.863 308.801C164.863 310.73 164.422 312.285 163.539 313.465C162.656 314.645 161.461 315.234 159.953 315.234C158.414 315.234 157.203 314.746 156.32 313.77V319.875H154.152V302.32H156.133L156.238 303.727C157.121 302.633 158.348 302.086 159.918 302.086C161.441 302.086 162.645 302.66 163.527 303.809C164.418 304.957 164.863 306.555 164.863 308.602V308.801ZM162.695 308.555C162.695 307.125 162.391 305.996 161.781 305.168C161.172 304.34 160.336 303.926 159.273 303.926C157.961 303.926 156.977 304.508 156.32 305.672V311.73C156.969 312.887 157.961 313.465 159.297 313.465C160.336 313.465 161.16 313.055 161.77 312.234C162.387 311.406 162.695 310.18 162.695 308.555Z" fill="black"/>
<path d="M85.5742 122.777L86.8164 123.621C86.0898 124.613 85.7148 125.684 85.6914 126.832V128.426H83.5352V127.066C83.5352 126.27 83.7227 125.48 84.0977 124.699C84.4805 123.918 84.9727 123.277 85.5742 122.777ZM89.2656 122.777L90.5078 123.621C89.7812 124.613 89.4062 125.684 89.3828 126.832V128.426H87.2266V127.066C87.2266 126.27 87.4141 125.48 87.7891 124.699C88.1719 123.918 88.6641 123.277 89.2656 122.777ZM97.1172 133.066L95.0312 135.234V141H92.7812V123.938H95.0312V132.375L102.613 123.938H105.332L98.6172 131.473L105.859 141H103.164L97.1172 133.066ZM111.168 137.824L114.121 128.32H116.441L111.344 142.957C110.555 145.066 109.301 146.121 107.582 146.121L107.172 146.086L106.363 145.934V144.176L106.949 144.223C107.684 144.223 108.254 144.074 108.66 143.777C109.074 143.48 109.414 142.938 109.68 142.148L110.16 140.859L105.637 128.32H108.004L111.168 137.824ZM112.398 123H115.023L111.883 126.445H110.137L112.398 123ZM131.723 137.637C131.723 137.051 131.5 136.598 131.055 136.277C130.617 135.949 129.848 135.668 128.746 135.434C127.652 135.199 126.781 134.918 126.133 134.59C125.492 134.262 125.016 133.871 124.703 133.418C124.398 132.965 124.246 132.426 124.246 131.801C124.246 130.762 124.684 129.883 125.559 129.164C126.441 128.445 127.566 128.086 128.934 128.086C130.371 128.086 131.535 128.457 132.426 129.199C133.324 129.941 133.773 130.891 133.773 132.047H131.594C131.594 131.453 131.34 130.941 130.832 130.512C130.332 130.082 129.699 129.867 128.934 129.867C128.145 129.867 127.527 130.039 127.082 130.383C126.637 130.727 126.414 131.176 126.414 131.73C126.414 132.254 126.621 132.648 127.035 132.914C127.449 133.18 128.195 133.434 129.273 133.676C130.359 133.918 131.238 134.207 131.91 134.543C132.582 134.879 133.078 135.285 133.398 135.762C133.727 136.23 133.891 136.805 133.891 137.484C133.891 138.617 133.438 139.527 132.531 140.215C131.625 140.895 130.449 141.234 129.004 141.234C127.988 141.234 127.09 141.055 126.309 140.695C125.527 140.336 124.914 139.836 124.469 139.195C124.031 138.547 123.812 137.848 123.812 137.098H125.98C126.02 137.824 126.309 138.402 126.848 138.832C127.395 139.254 128.113 139.465 129.004 139.465C129.824 139.465 130.48 139.301 130.973 138.973C131.473 138.637 131.723 138.191 131.723 137.637ZM139.07 141H136.891V128.32H139.07V141ZM142.199 123.398C142.199 124.242 141.957 124.926 141.473 125.449C140.996 125.973 140.398 126.234 139.68 126.234C139.359 126.234 139.082 126.195 138.848 126.117C138.613 126.039 138.305 125.879 137.922 125.637C137.547 125.395 137.273 125.25 137.102 125.203C136.938 125.148 136.746 125.121 136.527 125.121C136.207 125.121 135.934 125.246 135.707 125.496C135.48 125.738 135.367 126.051 135.367 126.434L133.914 126.352C133.914 125.516 134.152 124.824 134.629 124.277C135.098 123.73 135.695 123.457 136.422 123.457C136.695 123.457 136.941 123.496 137.16 123.574C137.379 123.652 137.676 123.805 138.051 124.031C138.426 124.258 138.711 124.406 138.906 124.477C139.109 124.547 139.332 124.582 139.574 124.582C139.91 124.582 140.188 124.449 140.406 124.184C140.633 123.918 140.746 123.609 140.746 123.258L142.199 123.398ZM151.539 125.25V128.32H153.906V129.996H151.539V137.859C151.539 138.367 151.645 138.75 151.855 139.008C152.066 139.258 152.426 139.383 152.934 139.383C153.184 139.383 153.527 139.336 153.965 139.242V141C153.395 141.156 152.84 141.234 152.301 141.234C151.332 141.234 150.602 140.941 150.109 140.355C149.617 139.77 149.371 138.938 149.371 137.859V129.996H147.062V128.32H149.371V125.25H151.539ZM158.617 129.855C159.578 128.676 160.828 128.086 162.367 128.086C165.047 128.086 166.398 129.598 166.422 132.621V141H164.254V132.609C164.246 131.695 164.035 131.02 163.621 130.582C163.215 130.145 162.578 129.926 161.711 129.926C161.008 129.926 160.391 130.113 159.859 130.488C159.328 130.863 158.914 131.355 158.617 131.965V141H156.449V123H158.617V129.855ZM177.496 141C177.371 140.75 177.27 140.305 177.191 139.664C176.184 140.711 174.98 141.234 173.582 141.234C172.332 141.234 171.305 140.883 170.5 140.18C169.703 139.469 169.305 138.57 169.305 137.484C169.305 136.164 169.805 135.141 170.805 134.414C171.812 133.68 173.227 133.312 175.047 133.312H177.156V132.316C177.156 131.559 176.93 130.957 176.477 130.512C176.023 130.059 175.355 129.832 174.473 129.832C173.699 129.832 173.051 130.027 172.527 130.418C172.004 130.809 171.742 131.281 171.742 131.836H169.562C169.562 131.203 169.785 130.594 170.23 130.008C170.684 129.414 171.293 128.945 172.059 128.602C172.832 128.258 173.68 128.086 174.602 128.086C176.062 128.086 177.207 128.453 178.035 129.188C178.863 129.914 179.293 130.918 179.324 132.199V138.035C179.324 139.199 179.473 140.125 179.77 140.812V141H177.496ZM173.898 139.348C174.578 139.348 175.223 139.172 175.832 138.82C176.441 138.469 176.883 138.012 177.156 137.449V134.848H175.457C172.801 134.848 171.473 135.625 171.473 137.18C171.473 137.859 171.699 138.391 172.152 138.773C172.605 139.156 173.188 139.348 173.898 139.348ZM179.113 126.492H176.805L174.812 124.641L172.82 126.492H170.523L173.922 123.422H175.703L179.113 126.492ZM171.379 124.418H169.738L167.395 121.395H169.727L171.379 124.418ZM184.773 128.32L184.844 129.914C185.812 128.695 187.078 128.086 188.641 128.086C191.32 128.086 192.672 129.598 192.695 132.621V141H190.527V132.609C190.52 131.695 190.309 131.02 189.895 130.582C189.488 130.145 188.852 129.926 187.984 129.926C187.281 129.926 186.664 130.113 186.133 130.488C185.602 130.863 185.188 131.355 184.891 131.965V141H182.723V128.32H184.773ZM195.039 128.742L193.809 127.898C194.535 126.883 194.91 125.812 194.934 124.688V123H197.078V124.523C197.07 125.305 196.875 126.086 196.492 126.867C196.117 127.641 195.633 128.266 195.039 128.742ZM198.637 128.742L197.406 127.898C198.133 126.883 198.508 125.812 198.531 124.688V123H200.676V124.523C200.668 125.305 200.473 126.086 200.09 126.867C199.715 127.641 199.23 128.266 198.637 128.742Z" fill="black"/>
<path d="M54.457 364.156L47.3906 380H45.1172L52.1602 364.719H42.9258V362.938H54.457V364.156ZM67.6172 372.723C67.6172 375.262 67.1836 377.148 66.3164 378.383C65.4492 379.617 64.0938 380.234 62.25 380.234C60.4297 380.234 59.082 379.633 58.207 378.43C57.332 377.219 56.8789 375.414 56.8477 373.016V370.121C56.8477 367.613 57.2812 365.75 58.1484 364.531C59.0156 363.312 60.375 362.703 62.2266 362.703C64.0625 362.703 65.4141 363.293 66.2812 364.473C67.1484 365.645 67.5938 367.457 67.6172 369.91V372.723ZM65.4492 369.758C65.4492 367.922 65.1914 366.586 64.6758 365.75C64.1602 364.906 63.3438 364.484 62.2266 364.484C61.1172 364.484 60.3086 364.902 59.8008 365.738C59.293 366.574 59.0312 367.859 59.0156 369.594V373.062C59.0156 374.906 59.2812 376.27 59.8125 377.152C60.3516 378.027 61.1641 378.465 62.25 378.465C63.3203 378.465 64.1133 378.051 64.6289 377.223C65.1523 376.395 65.4258 375.09 65.4492 373.309V369.758Z" fill="black"/>
<path d="M36.8281 221H34.6484V206.551L30.2773 208.156V206.188L36.4883 203.855H36.8281V221ZM52.332 215.27H54.6992V217.039H52.332V221H50.1523V217.039H42.3828V215.762L50.0234 203.938H52.332V215.27ZM44.8438 215.27H50.1523V206.902L49.8945 207.371L44.8438 215.27ZM67.3555 213.723C67.3555 216.262 66.9219 218.148 66.0547 219.383C65.1875 220.617 63.832 221.234 61.9883 221.234C60.168 221.234 58.8203 220.633 57.9453 219.43C57.0703 218.219 56.6172 216.414 56.5859 214.016V211.121C56.5859 208.613 57.0195 206.75 57.8867 205.531C58.7539 204.312 60.1133 203.703 61.9648 203.703C63.8008 203.703 65.1523 204.293 66.0195 205.473C66.8867 206.645 67.332 208.457 67.3555 210.91V213.723ZM65.1875 210.758C65.1875 208.922 64.9297 207.586 64.4141 206.75C63.8984 205.906 63.082 205.484 61.9648 205.484C60.8555 205.484 60.0469 205.902 59.5391 206.738C59.0312 207.574 58.7695 208.859 58.7539 210.594V214.062C58.7539 215.906 59.0195 217.27 59.5508 218.152C60.0898 219.027 60.9023 219.465 61.9883 219.465C63.0586 219.465 63.8516 219.051 64.3672 218.223C64.8906 217.395 65.1641 216.09 65.1875 214.309V210.758Z" fill="black"/>
<path d="M69.3789 532.723C69.3789 535.262 68.9453 537.148 68.0781 538.383C67.2109 539.617 65.8555 540.234 64.0117 540.234C62.1914 540.234 60.8438 539.633 59.9688 538.43C59.0938 537.219 58.6406 535.414 58.6094 533.016V530.121C58.6094 527.613 59.043 525.75 59.9102 524.531C60.7773 523.312 62.1367 522.703 63.9883 522.703C65.8242 522.703 67.1758 523.293 68.043 524.473C68.9102 525.645 69.3555 527.457 69.3789 529.91V532.723ZM67.2109 529.758C67.2109 527.922 66.9531 526.586 66.4375 525.75C65.9219 524.906 65.1055 524.484 63.9883 524.484C62.8789 524.484 62.0703 524.902 61.5625 525.738C61.0547 526.574 60.793 527.859 60.7773 529.594V533.062C60.7773 534.906 61.043 536.27 61.5742 537.152C62.1133 538.027 62.9258 538.465 64.0117 538.465C65.082 538.465 65.875 538.051 66.3906 537.223C66.9141 536.395 67.1875 535.09 67.2109 533.309V529.758Z" fill="black"/>
<path d="M14.0234 6.78906H8.53906V22H6.30078V6.78906H0.828125V4.9375H14.0234V6.78906ZM14.4688 15.543C14.4688 14.3008 14.7109 13.1836 15.1953 12.1914C15.6875 11.1992 16.3672 10.4336 17.2344 9.89453C18.1094 9.35547 19.1055 9.08594 20.2227 9.08594C21.9492 9.08594 23.3438 9.68359 24.4062 10.8789C25.4766 12.0742 26.0117 13.6641 26.0117 15.6484V15.8008C26.0117 17.0352 25.7734 18.1445 25.2969 19.1289C24.8281 20.1055 24.1523 20.8672 23.2695 21.4141C22.3945 21.9609 21.3867 22.2344 20.2461 22.2344C18.5273 22.2344 17.1328 21.6367 16.0625 20.4414C15 19.2461 14.4688 17.6641 14.4688 15.6953V15.543ZM16.6484 15.8008C16.6484 17.207 16.9727 18.3359 17.6211 19.1875C18.2773 20.0391 19.1523 20.4648 20.2461 20.4648C21.3477 20.4648 22.2227 20.0352 22.8711 19.1758C23.5195 18.3086 23.8438 17.0977 23.8438 15.543C23.8438 14.1523 23.5117 13.0273 22.8477 12.168C22.1914 11.3008 21.3164 10.8672 20.2227 10.8672C19.1523 10.8672 18.2891 11.293 17.6328 12.1445C16.9766 12.9961 16.6484 14.2148 16.6484 15.8008ZM19.2617 4.36328H21.043L24.4414 7.44531H22.1328L20.1523 5.58203L18.1602 7.44531H15.8398L19.2617 4.36328ZM25.2383 2.33594H27.582L25.2266 5.37109H23.5742L25.2383 2.33594ZM33.8164 20.4648C34.5898 20.4648 35.2656 20.2305 35.8438 19.7617C36.4219 19.293 36.7422 18.707 36.8047 18.0039H38.8555C38.8164 18.7305 38.5664 19.4219 38.1055 20.0781C37.6445 20.7344 37.0273 21.2578 36.2539 21.6484C35.4883 22.0391 34.6758 22.2344 33.8164 22.2344C32.0898 22.2344 30.7148 21.6602 29.6914 20.5117C28.6758 19.3555 28.168 17.7773 28.168 15.7773V15.4141C28.168 14.1797 28.3945 13.082 28.8477 12.1211C29.3008 11.1602 29.9492 10.4141 30.793 9.88281C31.6445 9.35156 32.6484 9.08594 33.8047 9.08594C35.2266 9.08594 36.4062 9.51172 37.3438 10.3633C38.2891 11.2148 38.793 12.3203 38.8555 13.6797H36.8047C36.7422 12.8594 36.4297 12.1875 35.8672 11.6641C35.3125 11.1328 34.625 10.8672 33.8047 10.8672C32.7031 10.8672 31.8477 11.2656 31.2383 12.0625C30.6367 12.8516 30.3359 13.9961 30.3359 15.4961V15.9062C30.3359 17.3672 30.6367 18.4922 31.2383 19.2812C31.8398 20.0703 32.6992 20.4648 33.8164 20.4648ZM59.6211 7.55078H57.418V22H55.4258L55.3203 20.6406C54.4531 21.7031 53.2461 22.2344 51.6992 22.2344C50.2305 22.2344 49.0312 21.6328 48.1016 20.4297C47.1797 19.2266 46.7188 17.6562 46.7188 15.7188V15.5547C46.7188 13.6094 47.1797 12.0469 48.1016 10.8672C49.0234 9.67969 50.2305 9.08594 51.7227 9.08594C53.207 9.08594 54.3828 9.59375 55.25 10.6094V7.55078H52.1562V5.78125H55.25V4H57.418V5.78125H59.6211V7.55078ZM48.8867 15.8008C48.8867 17.2383 49.1836 18.3633 49.7773 19.1758C50.3711 19.9883 51.1914 20.3945 52.2383 20.3945C53.6133 20.3945 54.6172 19.7773 55.25 18.543V12.7188C54.6016 11.5234 53.6055 10.9258 52.2617 10.9258C51.1992 10.9258 50.3711 11.3359 49.7773 12.1562C49.1836 12.9766 48.8867 14.1914 48.8867 15.8008ZM61.0156 15.543C61.0156 14.3008 61.2578 13.1836 61.7422 12.1914C62.2344 11.1992 62.9141 10.4336 63.7812 9.89453C64.6562 9.35547 65.6523 9.08594 66.7695 9.08594C68.4961 9.08594 69.8906 9.68359 70.9531 10.8789C72.0234 12.0742 72.5586 13.6641 72.5586 15.6484V15.8008C72.5586 17.0352 72.3203 18.1445 71.8438 19.1289C71.375 20.1055 70.6992 20.8672 69.8164 21.4141C68.9414 21.9609 67.9336 22.2344 66.793 22.2344C65.0742 22.2344 63.6797 21.6367 62.6094 20.4414C61.5469 19.2461 61.0156 17.6641 61.0156 15.6953V15.543ZM63.1953 15.8008C63.1953 17.207 63.5195 18.3359 64.168 19.1875C64.8242 20.0391 65.6992 20.4648 66.793 20.4648C67.8945 20.4648 68.7695 20.0352 69.418 19.1758C70.0664 18.3086 70.3906 17.0977 70.3906 15.543C70.3906 14.1523 70.0586 13.0273 69.3945 12.168C68.7383 11.3008 67.8633 10.8672 66.7695 10.8672C65.6992 10.8672 64.8359 11.293 64.1797 12.1445C63.5234 12.9961 63.1953 14.2148 63.1953 15.8008ZM70.2383 7.21094V7.32812H68.4453L66.6875 5.33594L64.9414 7.32812H63.1484V7.1875L66.0312 4H67.3438L70.2383 7.21094ZM65.4453 24.8711C65.4453 24.5195 65.5508 24.2227 65.7617 23.9805C65.9805 23.7383 66.3008 23.6172 66.7227 23.6172C67.1445 23.6172 67.4648 23.7383 67.6836 23.9805C67.9023 24.2227 68.0117 24.5195 68.0117 24.8711C68.0117 25.2227 67.9023 25.5156 67.6836 25.75C67.4648 25.9844 67.1445 26.1016 66.7227 26.1016C66.3008 26.1016 65.9805 25.9844 65.7617 25.75C65.5508 25.5156 65.4453 25.2227 65.4453 24.8711ZM81.1484 15.0742C81.1484 13.3086 81.3828 11.6133 81.8516 9.98828C82.3281 8.36328 83.0352 6.88672 83.9727 5.55859C84.9102 4.23047 85.8828 3.29297 86.8906 2.74609L87.3359 4.17578C86.1953 5.05078 85.2578 6.38672 84.5234 8.18359C83.7969 9.98047 83.3984 11.9922 83.3281 14.2188L83.3164 15.2148C83.3164 18.2305 83.8672 20.8477 84.9688 23.0664C85.6328 24.3945 86.4219 25.4336 87.3359 26.1836L86.8906 27.5078C85.8516 26.9297 84.8594 25.9609 83.9141 24.6016C82.0703 21.9453 81.1484 18.7695 81.1484 15.0742ZM93.6641 16.6211L93.9922 18.8711L94.4727 16.8438L97.8477 4.9375H99.7461L103.039 16.8438L103.508 18.9062L103.871 16.6094L106.52 4.9375H108.781L104.645 22H102.594L99.0781 9.56641L98.8086 8.26562L98.5391 9.56641L94.8945 22H92.8438L88.7188 4.9375H90.9688L93.6641 16.6211ZM113.539 15.3203V22H111.289V4.9375H117.582C119.449 4.9375 120.91 5.41406 121.965 6.36719C123.027 7.32031 123.559 8.58203 123.559 10.1523C123.559 11.8086 123.039 13.0859 122 13.9844C120.969 14.875 119.488 15.3203 117.559 15.3203H113.539ZM113.539 13.4805H117.582C118.785 13.4805 119.707 13.1992 120.348 12.6367C120.988 12.0664 121.309 11.2461 121.309 10.1758C121.309 9.16016 120.988 8.34766 120.348 7.73828C119.707 7.12891 118.828 6.8125 117.711 6.78906H113.539V13.4805ZM129.336 4.9375L134.914 18.8594L140.492 4.9375H143.41V22H141.16V15.3555L141.371 8.18359L135.77 22H134.047L128.457 8.21875L128.68 15.3555V22H126.43V4.9375H129.336ZM152.047 15.1914C152.047 16.9336 151.816 18.6055 151.355 20.207C150.902 21.8008 150.203 23.2734 149.258 24.625C148.32 25.9766 147.336 26.9375 146.305 27.5078L145.848 26.1836C147.051 25.2617 148.016 23.832 148.742 21.8945C149.477 19.9492 149.852 17.793 149.867 15.4258V15.0508C149.867 13.4102 149.695 11.8867 149.352 10.4805C149.008 9.06641 148.527 7.80078 147.91 6.68359C147.301 5.56641 146.613 4.69531 145.848 4.07031L146.305 2.74609C147.336 3.31641 148.316 4.26953 149.246 5.60547C150.184 6.94141 150.883 8.41406 151.344 10.0234C151.812 11.6328 152.047 13.3555 152.047 15.1914Z" fill="black"/>
<line x1="77.821" y1="47.4818" x2="63.4816" y2="67.9606" stroke="#28A745" stroke-width="5" stroke-linecap="round"/>
<line x1="90.7252" y1="67.9606" x2="76.3858" y2="47.4818" stroke="#28A745" stroke-width="5" stroke-linecap="round" stroke-linejoin="round"/>
</svg>
